<?xml version="1.0" encoding="utf-8"?>
<!-- Generator: Adobe Illustrator 27.5.0, SVG Export Plug-In . SVG Version: 6.00 Build 0)  -->
<svg version="1.1" xmlns="http://www.w3.org/2000/svg" xmlns:xlink="http://www.w3.org/1999/xlink" x="0px" y="0px"
	 viewBox="0 0 3710 3710" style="enable-background:new 0 0 3710 3710;" xml:space="preserve">
<g id="Background">
	<g>
		<g>
			<rect style="fill:#FFFFFF;" width="3710" height="3710"/>
		</g>
	</g>
</g>
<g id="Illustration">
	<g>
		<linearGradient id="SVGID_1_" gradientUnits="userSpaceOnUse" x1="3474.8235" y1="3644.0557" x2="1529.1218" y2="1572.8254">
			<stop  offset="0" style="stop-color:#DAE3FE"/>
			<stop  offset="1" style="stop-color:#E9EFFD"/>
		</linearGradient>
		<path style="fill:url(#SVGID_1_);" d="M2890.628,2813.087c-71.827,74.037-136.096,117.559-185.302,150.414
			c-479.899,320.433-1028.476,228.077-1198.083,196.509c-273.639-50.93-504.628-86.859-703.089-266.16
			c-450.963-407.428-429.029-1257.352-84.438-1783.843c40.858-62.427,384.928-572.444,934.692-644.31
			c13.446-1.758,23.479-2.759,32.267-3.689c85.047-9.005,612.069-56.529,1041.802,303.502
			c61.514,51.536,160.509,144.495,252.308,286.273C3316.446,1570.184,3317.51,2373.074,2890.628,2813.087z"/>
		<g>
			<g>
				<g style="opacity:0.3;">
					<path style="fill:#BDD0FB;" d="M1526.565,755.413c-3.119-3.918-2.838-9.641,0.813-13.227
						c7.981-7.846,16.423-15.46,25.089-22.633c4.216-3.49,10.462-2.902,13.951,1.313c0.041,0.051,0.081,0.101,0.12,0.151
						c3.353,4.212,2.73,10.352-1.435,13.799c-8.233,6.814-16.251,14.048-23.834,21.5c-3.901,3.836-10.176,3.783-14.012-0.121
						C1527.009,755.945,1526.78,755.682,1526.565,755.413z M1594.489,702.153c-0.241-0.303-0.468-0.625-0.677-0.962
						c-2.882-4.651-1.448-10.76,3.204-13.642c9.555-5.918,19.458-11.486,29.433-16.548c4.88-2.477,10.819-0.54,13.321,4.349
						c2.476,4.88,0.525,10.844-4.351,13.318c-9.481,4.813-18.888,10.103-27.968,15.729
						C1603.137,707.07,1597.573,706.027,1594.489,702.153z M1672.451,665.174c-0.687-0.863-1.241-1.857-1.619-2.96
						c-1.771-5.177,0.985-10.812,6.161-12.586c10.609-3.638,21.511-6.858,32.4-9.571c5.311-1.32,10.682,1.916,12.01,7.218
						c1.322,5.309-1.91,10.687-7.219,12.01c-10.341,2.576-20.69,5.634-30.767,9.088
						C1679.345,669.77,1674.987,668.36,1672.451,665.174z M1756.741,646.553c-1.135-1.426-1.89-3.182-2.095-5.129
						c-0.572-5.441,3.377-10.317,8.818-10.889c11.164-1.17,22.511-1.874,33.727-2.089c5.466-0.1,9.985,4.247,10.096,9.717
						c0.105,5.469-4.246,9.99-9.717,10.096c-10.652,0.204-21.43,0.87-32.038,1.986
						C1762.038,650.609,1758.779,649.113,1756.741,646.553z M1843.066,647.195c-1.592-2-2.414-4.611-2.085-7.348
						c0.65-5.435,5.582-9.312,11.014-8.659c11.116,1.331,22.335,3.156,33.336,5.43c5.36,1.102,8.809,6.343,7.701,11.705
						c-1.107,5.358-6.347,8.805-11.708,7.701c-10.457-2.162-21.119-3.897-31.684-5.162
						C1846.944,650.538,1844.633,649.163,1843.066,647.195z M1927.093,666.917c-2.062-2.59-2.781-6.153-1.589-9.502
						c1.837-5.155,7.502-7.845,12.657-6.011c10.564,3.762,21.101,8.025,31.31,12.672c4.982,2.269,7.18,8.142,4.912,13.124
						c-2.264,4.978-8.141,7.179-13.121,4.913c-9.703-4.415-19.71-8.466-29.749-12.04
						C1929.706,669.429,1928.205,668.314,1927.093,666.917z M2171.675,936.26c-0.854-1.073-1.497-2.34-1.853-3.756
						c-2.59-10.325-5.667-20.676-9.146-30.763c-1.783-5.172,0.964-10.813,6.135-12.594c5.173-1.786,10.813,0.961,12.597,6.135
						c3.664,10.623,6.906,21.525,9.635,32.397c1.332,5.308-1.892,10.69-7.199,12.021
						C2177.953,940.678,2174.021,939.206,2171.675,936.26z M2004.609,704.745c-2.56-3.216-2.936-7.826-0.607-11.488
						c2.937-4.619,9.06-5.981,13.677-3.046c9.465,6.017,18.782,12.52,27.695,19.327c4.332,3.341,5.184,9.538,1.861,13.889
						c-3.321,4.348-9.539,5.18-13.89,1.859c-8.462-6.466-17.311-12.64-26.298-18.355
						C2006.094,706.323,2005.276,705.582,2004.609,704.745z M2141.364,855.448c-0.407-0.512-0.772-1.07-1.081-1.675
						c-4.839-9.489-10.154-18.893-15.791-27.955c-2.889-4.648-1.465-10.758,3.18-13.647c4.646-2.888,10.775-1.484,13.647,3.18
						c5.93,9.536,11.523,19.432,16.617,29.415c2.486,4.875,0.55,10.844-4.323,13.329
						C2149.344,860.273,2144.237,859.058,2141.364,855.448z M2071.733,758.94c-3.115-3.912-2.839-9.625,0.799-13.213
						c3.896-3.844,10.168-3.801,14.014,0.092c7.868,7.975,15.498,16.398,22.673,25.037c0.046,0.052,0.091,0.108,0.135,0.162
						c3.348,4.206,2.732,10.335-1.421,13.787c-4.21,3.498-10.456,2.922-13.952-1.289c-6.818-8.204-14.066-16.202-21.543-23.78
						C2072.188,759.48,2071.951,759.214,2071.733,758.94z"/>
					<path style="fill:#BDD0FB;" d="M2182.434,1004.995c-1.215-1.526-1.995-3.426-2.13-5.521
						c-0.329-5.098-0.773-10.273-1.311-15.385c-0.576-5.44,3.369-10.32,8.81-10.894c5.442-0.578,10.327,3.366,10.894,8.812
						c0.57,5.376,1.034,10.819,1.383,16.184c0.354,5.459-3.787,10.175-9.244,10.528
						C2187.467,1008.937,2184.386,1007.447,2182.434,1004.995z"/>
				</g>
				<g style="opacity:0.3;">
					<path style="fill:#BDD0FB;" d="M2082.71,1290.123c-2.978-3.741-2.887-9.193,0.438-12.84c3.443-3.772,6.865-7.682,10.168-11.617
						c3.519-4.192,9.769-4.737,13.959-1.219c4.208,3.534,4.736,9.77,1.219,13.959c-3.479,4.142-7.082,8.26-10.706,12.233
						c-3.688,4.042-9.955,4.329-13.998,0.642C2083.393,1290.919,2083.034,1290.53,2082.71,1290.123z"/>
					<path style="fill:#BDD0FB;" d="M1495.786,1270.921c-2.839-3.566-5.629-7.195-8.368-10.884
						c-3.261-4.394-2.344-10.6,2.048-13.862c4.393-3.262,10.631-2.337,13.863,2.046c6.323,8.513,12.975,16.751,19.855,24.573
						c3.61,4.119,3.214,10.368-0.894,13.982c-4.111,3.616-10.372,3.214-13.985-0.895
						C1504.049,1281.044,1499.838,1276.009,1495.786,1270.921z M1459.177,1216.007c-0.345-0.433-0.659-0.902-0.935-1.405
						c-5.331-9.684-10.309-19.703-14.796-29.776c-2.227-4.997,0.02-10.855,5.016-13.081c5-2.227,10.874,0.02,13.083,5.019
						c4.263,9.567,8.994,19.083,14.057,28.288c2.638,4.793,0.89,10.818-3.901,13.454
						C1467.406,1220.868,1462.129,1219.715,1459.177,1216.007z M1545.372,1322.548c-2.909-3.654-2.905-8.974,0.258-12.637
						c3.578-4.143,9.834-4.599,13.977-1.023c7.921,6.843,16.243,13.438,24.743,19.602c4.424,3.221,5.414,9.41,2.201,13.838
						c-3.216,4.43-9.411,5.415-13.84,2.201c-8.948-6.493-17.714-13.44-26.057-20.644
						C1546.178,1323.473,1545.751,1323.024,1545.372,1322.548z M1426.662,1137.516c-0.783-0.984-1.388-2.135-1.76-3.417
						c-3.069-10.609-5.721-21.478-7.883-32.302c-1.071-5.365,2.409-10.582,7.774-11.653c5.369-1.073,10.586,2.404,11.656,7.775
						c2.053,10.278,4.571,20.598,7.487,30.674c1.523,5.255-1.508,10.75-6.763,12.27
						C1433.2,1142.013,1429.088,1140.564,1426.662,1137.516z M1615.367,1370.575c-2.386-2.998-2.91-7.246-0.989-10.843
						c2.577-4.827,8.581-6.651,13.408-4.073c9.227,4.929,18.798,9.531,28.444,13.682c5.026,2.162,7.35,7.99,5.184,13.018
						c-2.163,5.025-7.989,7.345-13.015,5.182c-10.156-4.368-20.232-9.214-29.949-14.404
						C1617.221,1372.482,1616.184,1371.601,1615.367,1370.575z M1694.207,1402.081c-1.908-2.396-2.681-5.642-1.803-8.82
						c1.461-5.274,6.919-8.366,12.193-6.905c10.114,2.799,20.464,5.205,30.76,7.152c5.379,1.009,8.914,6.188,7.898,11.573
						c-1.017,5.378-6.198,8.911-11.576,7.897c-10.836-2.048-21.727-4.58-32.369-7.527
						C1697.216,1404.872,1695.465,1403.661,1694.207,1402.081z M1778.04,1415.649c-1.451-1.823-2.268-4.16-2.14-6.671
						c0.276-5.464,4.931-9.67,10.396-9.392c10.491,0.533,21.115,0.63,31.584,0.284c5.467-0.18,10.047,4.101,10.227,9.577
						c0.178,5.469-4.107,10.047-9.578,10.227c-11.016,0.361-22.201,0.262-33.238-0.298
						C1782.337,1419.226,1779.749,1417.796,1778.04,1415.649z M1862.831,1410.612c-1.005-1.263-1.715-2.788-2.008-4.492
						c-0.925-5.393,2.697-10.513,8.09-11.437c10.347-1.773,20.733-4.008,30.873-6.644c5.296-1.376,10.709,1.806,12.083,7.093
						c1.378,5.297-1.801,10.706-7.096,12.083c-10.68,2.777-21.619,5.131-32.51,6.998
						C1868.571,1414.845,1865.009,1413.348,1862.831,1410.612z M1944.479,1387.075c-0.565-0.71-1.04-1.512-1.404-2.392
						c-2.091-5.056,0.315-10.851,5.37-12.939c9.677-4.001,19.31-8.467,28.636-13.28c4.864-2.509,10.844-0.584,13.347,4.262
						c2.51,4.862,0.601,10.84-4.263,13.349c-9.818,5.066-19.96,9.769-30.147,13.979
						C1951.841,1391.78,1947.159,1390.442,1944.479,1387.075z M2018.911,1346.203c-0.127-0.159-0.248-0.324-0.367-0.492
						c-3.141-4.479-2.055-10.659,2.425-13.799c6.325-4.434,12.586-9.115,18.617-13.916c2.183-1.738,4.343-3.499,6.476-5.274
						c4.208-3.501,10.456-2.929,13.954,1.278c3.627,4.189,2.928,10.452-1.275,13.951c-2.247,1.87-4.515,3.718-6.813,5.547
						c-6.343,5.05-12.934,9.976-19.586,14.638C2028.032,1351.16,2022.147,1350.267,2018.911,1346.203z"/>
					<path style="fill:#BDD0FB;" d="M1412.221,1053.556c-1.227-1.541-2.008-3.46-2.136-5.572c-0.32-5.355-0.533-10.817-0.633-16.236
						c-0.102-5.472,4.251-9.989,9.722-10.09c5.471-0.099,9.99,4.246,10.09,9.722c0.096,5.147,0.299,10.336,0.601,15.42
						c0.329,5.459-3.833,10.153-9.296,10.481C1417.221,1057.48,1414.162,1055.993,1412.221,1053.556z"/>
				</g>
				<g>
					<path style="fill:#BDD0FB;" d="M1510.454,992.439c-0.419,1.93,0.432,3.915,2.12,4.94l48.165,29.268
						c0.424,26.317,5.047,52.755,14.113,78.279l-34.857,44.241c-1.223,1.552-1.326,3.708-0.258,5.37l36.561,56.864
						c1.069,1.662,3.075,2.462,4.993,1.995l54.718-13.353c19.46,18.841,41.595,34.02,65.363,45.327l6.639,55.968
						c0.233,1.961,1.684,3.559,3.615,3.979l66.061,14.355c1.932,0.42,3.916-0.432,4.941-2.12l29.267-48.164
						c26.317-0.423,52.756-5.047,78.279-14.114l44.242,34.858c1.551,1.223,3.708,1.326,5.37,0.258l56.864-36.562
						c1.662-1.068,2.463-3.074,1.994-4.993l-13.353-54.718c18.842-19.459,34.021-41.594,45.327-65.362l55.969-6.64
						c1.96-0.233,3.559-1.685,3.979-3.615l14.355-66.061c0.42-1.931-0.432-3.915-2.12-4.941l-48.165-29.267
						c-0.423-26.317-5.046-52.756-14.113-78.279l34.858-44.242c1.222-1.551,1.326-3.708,0.258-5.37l-36.563-56.863
						c-1.068-1.662-3.073-2.463-4.993-1.994l-54.718,13.353c-19.459-18.842-41.595-34.021-65.363-45.327l-6.639-55.967
						c-0.232-1.962-1.685-3.561-3.615-3.98l-66.061-14.355c-1.93-0.42-3.914,0.432-4.941,2.12l-29.268,48.164
						c-26.317,0.423-52.756,5.047-78.279,14.114l-44.242-34.858c-1.551-1.222-3.708-1.326-5.37-0.257l-56.863,36.561
						c-1.662,1.069-2.463,3.073-1.995,4.993l13.353,54.718c-18.841,19.459-34.02,41.594-45.327,65.362l-55.968,6.64
						c-1.962,0.232-3.559,1.684-3.98,3.615L1510.454,992.439z"/>
					
						<linearGradient id="SVGID_00000123422471594095839220000004779615980163408519_" gradientUnits="userSpaceOnUse" x1="1739.765" y1="1022.4386" x2="1875.6425" y2="1022.4386">
						<stop  offset="0" style="stop-color:#DAE3FE"/>
						<stop  offset="1" style="stop-color:#E9EFFD"/>
					</linearGradient>
					<path style="fill:url(#SVGID_00000123422471594095839220000004779615980163408519_);" d="M1754.493,1064.731
						c-20.632-25.915-19.718-63.82,3.57-88.715c25.601-27.364,68.685-28.797,96.048-3.2c13.26,12.399,20.89,29.221,21.493,47.359
						c0.606,18.14-5.89,35.432-18.292,48.686c-25.601,27.364-68.685,28.797-96.048,3.201
						C1758.797,1069.753,1756.538,1067.3,1754.493,1064.731z M1848.524,990.068c-1.593-2.001-3.34-3.897-5.243-5.678
						c-20.978-19.626-54.016-18.524-73.641,2.453c-19.627,20.98-18.539,54.018,2.453,73.643
						c20.978,19.627,54.015,18.524,73.64-2.453c9.509-10.165,14.489-23.42,14.026-37.33
						C1859.382,1009.399,1855.443,998.76,1848.524,990.068z"/>
					
						<linearGradient id="SVGID_00000110464137408737061860000017066551945719748777_" gradientUnits="userSpaceOnUse" x1="1652.3411" y1="1022.6807" x2="1976.2568" y2="1022.6807">
						<stop  offset="0" style="stop-color:#DAE3FE"/>
						<stop  offset="1" style="stop-color:#E9EFFD"/>
					</linearGradient>
					<path style="fill:url(#SVGID_00000110464137408737061860000017066551945719748777_);" d="M1678.573,1126.948
						c-3.543-4.451-6.884-9.106-10.003-13.956l0,0c-0.982-1.526-1.939-3.069-2.872-4.627c-4.597-7.681-8.575-15.716-11.874-23.98
						c-0.045-0.113-0.09-0.225-0.135-0.337c-0.126-0.32-0.252-0.64-0.375-0.963c-0.245-0.624-0.481-1.251-0.718-1.877
						c-0.62-1.648-0.07-3.449,1.237-4.492c0.318-0.253,0.682-0.461,1.082-0.611c2.049-0.77,4.329,0.274,5.101,2.318
						c3.958,10.545,9.079,20.732,15.223,30.28c30.495,47.445,82.142,73.246,134.75,73.039c29.261-0.112,58.82-8.274,85.204-25.241
						c4.627-2.974,9.071-6.16,13.315-9.541c28.568-22.749,48.279-54.367,56.136-90.534c9.029-41.544,1.338-84.118-21.654-119.876
						c-47.492-73.846-146.139-95.26-219.954-47.798c-4.552,2.926-8.938,6.072-13.142,9.422
						c-18.222,14.512-33.067,32.85-43.403,53.75c-0.268,0.54-0.64,0.992-1.083,1.342c-1.163,0.926-2.804,1.156-4.225,0.452
						c-1.96-0.977-2.771-3.344-1.795-5.311c10.852-21.942,26.436-41.197,45.566-56.432c4.413-3.516,9.017-6.818,13.793-9.89
						c77.5-49.832,181.096-27.295,230.911,50.176c24.139,37.541,32.21,82.233,22.732,125.847
						c-8.248,37.969-28.942,71.162-58.932,95.045c-4.457,3.548-9.121,6.892-13.975,10.016
						c-37.544,24.138-82.237,32.212-125.849,22.735C1735.655,1177.652,1702.456,1156.948,1678.573,1126.948z"/>
				</g>
			</g>
			<g>
				<g style="opacity:0.3;">
					<path style="fill:#BDD0FB;" d="M1111.711,653.522c-1.649-2.071-1.817-5.054-0.214-7.33c2.988-4.25,6.146-8.467,9.386-12.533
						c2.105-2.642,5.952-3.077,8.599-0.972c2.656,2.099,3.077,5.956,0.972,8.599c-3.088,3.875-6.098,7.894-8.95,11.949
						c-1.941,2.763-5.758,3.426-8.526,1.486C1112.489,654.373,1112.067,653.969,1111.711,653.522z"/>
					<path style="fill:#BDD0FB;" d="M1142.21,617.665c-1.932-2.426-1.751-5.97,0.514-8.181c6.396-6.253,13.188-12.249,20.182-17.817
						c1.473-1.172,2.963-2.332,4.469-3.482c2.693-2.048,6.542-1.309,8.581,1.155c2.049,2.688,1.53,6.527-1.154,8.577
						c-1.441,1.098-2.866,2.205-4.273,3.325c-6.672,5.312-13.149,11.03-19.25,16.991c-2.418,2.365-6.289,2.319-8.654-0.095
						C1142.478,617.982,1142.338,617.826,1142.21,617.665z M1192.745,579.151c-0.18-0.226-0.351-0.469-0.5-0.724
						c-1.706-2.92-0.725-6.668,2.192-8.376c9.358-5.479,19.139-10.424,29.067-14.697c3.105-1.338,6.707,0.115,8.04,3.201
						c1.336,3.107-0.095,6.702-3.201,8.04c-9.473,4.077-18.801,8.796-27.727,14.019
						C1197.958,582.169,1194.61,581.494,1192.745,579.151z M1251.11,554.042c-0.484-0.608-0.858-1.318-1.09-2.108
						c-0.941-3.245,0.933-6.639,4.178-7.581c10.4-3.009,21.103-5.404,31.809-7.106c3.342-0.533,6.469,1.736,7.004,5.084
						c0.531,3.335-1.745,6.473-5.08,7.004c-10.21,1.625-20.412,3.903-30.33,6.777C1255.148,556.82,1252.609,555.924,1251.11,554.042
						z M1313.865,544.05c-0.789-0.992-1.275-2.235-1.327-3.595c-0.114-3.377,2.531-6.213,5.908-6.328
						c10.842-0.37,21.797-0.071,32.57,0.893c3.366,0.304,5.845,3.283,5.547,6.641c-0.299,3.366-3.271,5.85-6.641,5.551
						c-10.266-0.921-20.721-1.206-31.057-0.852C1316.85,546.429,1315.032,545.516,1313.865,544.05z M1377.155,549.688
						c-1.102-1.384-1.598-3.235-1.197-5.101c0.709-3.302,3.963-5.404,7.267-4.697c10.591,2.278,21.142,5.228,31.359,8.774
						c3.201,1.103,4.886,4.593,3.777,7.786c-1.109,3.193-4.597,4.885-7.786,3.777c-9.751-3.382-19.814-6.198-29.921-8.367
						C1379.216,551.549,1378.005,550.756,1377.155,549.688z M1437.151,570.513c-1.427-1.793-1.782-4.322-0.704-6.517
						c1.49-3.031,5.157-4.277,8.191-2.789c9.719,4.782,19.233,10.216,28.268,16.154c2.826,1.871,3.606,5.653,1.753,8.477
						c-1.854,2.824-5.651,3.609-8.473,1.753c-8.618-5.663-17.683-10.842-26.949-15.401
						C1438.396,571.78,1437.696,571.198,1437.151,570.513z M1490.22,605.366c-1.786-2.244-1.797-5.509,0.13-7.772
						c2.191-2.573,6.053-2.883,8.629-0.694c8.222,6.998,16.11,14.604,23.453,22.608c2.247,2.534,2.113,6.368-0.378,8.649
						c-2.49,2.284-6.36,2.115-8.646-0.373c-6.999-7.639-14.523-14.893-22.363-21.565
						C1490.736,605.957,1490.462,605.67,1490.22,605.366z M1550.003,679.212c-0.22-0.276-0.421-0.577-0.595-0.901
						c-4.251-7.844-9.006-15.592-14.135-23.032c-0.771-1.131-1.541-2.233-2.323-3.322c-1.963-2.753-1.329-6.573,1.422-8.537
						c2.753-1.973,6.665-1.376,8.538,1.418c0.829,1.166,1.651,2.333,2.459,3.519c5.356,7.774,10.342,15.897,14.798,24.124
						c1.61,2.973,0.509,6.684-2.464,8.294C1555.055,682.21,1551.818,681.491,1550.003,679.212z"/>
				</g>
				<g style="opacity:0.3;">
					<path style="fill:#BDD0FB;" d="M1123.204,965.707c-2.081-2.614-1.678-6.425,0.917-8.548c2.614-2.138,6.472-1.753,8.609,0.864
						c6.44,7.878,13.414,15.429,20.732,22.443c2.403,2.346,2.525,6.213,0.183,8.654c-2.341,2.441-6.214,2.518-8.654,0.183
						c-7.67-7.361-14.986-15.274-21.736-23.531C1123.24,965.751,1123.221,965.728,1123.204,965.707z M1104.882,940.322
						c-0.138-0.173-0.264-0.351-0.385-0.541c-5.709-8.994-10.928-18.428-15.515-28.037c-1.453-3.052-0.164-6.701,2.886-8.156
						c3.054-1.461,6.706-0.145,8.161,2.883c4.375,9.17,9.356,18.171,14.801,26.756c1.812,2.851,0.965,6.633-1.887,8.443
						C1110.274,943.363,1106.802,942.735,1104.882,940.322z M1168.316,1008.939c-1.69-2.123-1.813-5.194-0.113-7.472
						c2.018-2.703,5.852-3.261,8.561-1.24c8.161,6.087,16.755,11.73,25.557,16.769c2.931,1.696,3.948,5.42,2.265,8.352
						c-1.677,2.931-5.419,3.948-8.352,2.269c-9.224-5.283-18.236-11.201-26.787-17.585
						C1169.013,1009.709,1168.636,1009.341,1168.316,1008.939z M1077.991,883.883c-0.433-0.544-0.781-1.173-1.016-1.871
						c-3.381-10.11-6.171-20.531-8.288-30.972c-0.674-3.313,1.468-6.542,4.781-7.216c3.304-0.667,6.535,1.473,7.212,4.78
						c2.022,9.955,4.682,19.888,7.903,29.529c1.07,3.205-0.66,6.674-3.864,7.744
						C1082.214,886.712,1079.547,885.837,1077.991,883.883z M1222.537,1039.98c-1.349-1.695-1.756-4.056-0.856-6.189
						c1.313-3.119,4.902-4.579,8.015-3.269c9.357,3.944,19.053,7.353,28.828,10.132c3.257,0.925,5.137,4.313,4.21,7.563
						c-0.926,3.25-4.313,5.137-7.563,4.211c-10.245-2.919-20.414-6.491-30.227-10.622
						C1223.967,1041.393,1223.153,1040.754,1222.537,1039.98z M1282.623,1057.109c-1.033-1.297-1.537-3.005-1.26-4.768
						c0.527-3.338,3.661-5.619,6.999-5.091c10.056,1.587,20.295,2.58,30.428,2.949c3.382,0.123,6.019,2.965,5.894,6.338
						c-0.122,3.378-2.958,6.013-6.333,5.89c-10.626-0.386-21.359-1.423-31.897-3.087
						C1284.882,1059.092,1283.542,1058.264,1282.623,1057.109z M1345.088,1059.351c-0.726-0.911-1.202-2.037-1.305-3.288
						c-0.29-3.367,2.209-6.331,5.578-6.618c10.141-0.858,20.317-2.353,30.244-4.439c3.302-0.689,6.551,1.426,7.243,4.733
						c0.694,3.308-1.422,6.551-4.733,7.247c-10.408,2.183-21.082,3.753-31.719,4.659
						C1348.278,1061.823,1346.32,1060.899,1345.088,1059.351z"/>
					<path style="fill:#BDD0FB;" d="M1065.512,822.337c-0.735-0.923-1.211-2.068-1.31-3.334c-0.407-5.222-0.658-10.479-0.755-15.627
						c-0.061-3.378,2.627-6.171,6.007-6.234c3.372-0.053,6.164,2.628,6.233,6.007c0.089,4.909,0.332,9.925,0.717,14.909
						c0.262,3.37-2.26,6.313-5.628,6.574C1068.674,824.792,1066.735,823.873,1065.512,822.337z"/>
				</g>
				<g>
					<path style="fill:#BDD0FB;" d="M1130.527,777.079c-0.281,1.291,0.289,2.62,1.419,3.306l32.23,19.585
						c0.283,17.609,3.377,35.302,9.444,52.381l-23.324,29.604c-0.818,1.038-0.887,2.481-0.173,3.593l24.465,38.051
						c0.715,1.112,2.057,1.648,3.341,1.335l36.615-8.936c13.022,12.608,27.833,22.765,43.738,30.331l4.443,37.451
						c0.156,1.313,1.128,2.382,2.42,2.663l44.205,9.606c1.292,0.28,2.62-0.289,3.306-1.419l19.584-32.229
						c17.61-0.283,35.302-3.377,52.381-9.444l29.604,23.325c1.039,0.818,2.481,0.887,3.593,0.173l38.051-24.466
						c1.112-0.715,1.648-2.057,1.334-3.341l-8.935-36.615c12.609-13.021,22.765-27.833,30.331-43.737l37.452-4.443
						c1.312-0.156,2.382-1.127,2.662-2.418l9.606-44.206c0.281-1.292-0.289-2.619-1.419-3.306l-32.23-19.584
						c-0.282-17.61-3.377-35.302-9.444-52.381l23.325-29.605c0.818-1.038,0.888-2.481,0.173-3.593l-24.466-38.051
						c-0.715-1.112-2.056-1.647-3.341-1.334l-36.615,8.936c-13.021-12.608-27.833-22.766-43.738-30.331l-4.443-37.45
						c-0.155-1.313-1.128-2.383-2.419-2.663l-44.205-9.606c-1.292-0.28-2.62,0.289-3.306,1.419l-19.585,32.229
						c-17.61,0.283-35.302,3.378-52.381,9.445l-29.605-23.326c-1.037-0.818-2.481-0.887-3.593-0.171l-38.05,24.465
						c-1.112,0.716-1.648,2.057-1.335,3.341l8.935,36.615c-12.608,13.021-22.765,27.833-30.331,43.737l-37.451,4.443
						c-1.313,0.156-2.381,1.127-2.663,2.419L1130.527,777.079z"/>
					
						<linearGradient id="SVGID_00000164502117030418494780000007796125524160040320_" gradientUnits="userSpaceOnUse" x1="1283.1337" y1="797.1651" x2="1375.6847" y2="797.1651">
						<stop  offset="0" style="stop-color:#DAE3FE"/>
						<stop  offset="1" style="stop-color:#E9EFFD"/>
					</linearGradient>
					<path style="fill:url(#SVGID_00000164502117030418494780000007796125524160040320_);" d="M1293.143,825.911
						c-6.148-7.723-9.648-17.174-9.983-27.219c-0.411-12.357,4.015-24.134,12.463-33.163c17.429-18.635,46.776-19.614,65.421-2.181
						c18.632,17.493,19.614,46.792,2.179,65.427c-8.447,9.031-19.905,14.231-32.259,14.64c-12.359,0.414-24.138-4.011-33.167-12.463
						C1296.112,829.373,1294.556,827.686,1293.143,825.911z M1356.075,775.959c-1.026-1.288-2.156-2.515-3.392-3.675
						c-13.714-12.822-35.3-12.102-48.126,1.608c-6.21,6.639-9.471,15.305-9.165,24.391c0.304,9.093,4.134,17.512,10.768,23.734l0,0
						c6.641,6.212,15.307,9.469,24.393,9.167c9.093-0.303,17.52-4.129,23.735-10.772
						C1365.955,807.943,1366.413,788.945,1356.075,775.959z"/>
					
						<linearGradient id="SVGID_00000178916080067928018880000004978867944640396163_" gradientUnits="userSpaceOnUse" x1="1222.0055" y1="797.2424" x2="1445.6897" y2="797.2424">
						<stop  offset="0" style="stop-color:#DAE3FE"/>
						<stop  offset="1" style="stop-color:#E9EFFD"/>
					</linearGradient>
					<path style="fill:url(#SVGID_00000178916080067928018880000004978867944640396163_);" d="M1240.243,869.15
						c-2.412-3.029-4.688-6.206-6.829-9.527c-4.246-6.6-7.825-13.638-10.643-20.938c-0.124-0.329-0.248-0.658-0.373-0.987
						c-0.957-2.546-0.108-5.326,1.91-6.936c0.491-0.391,1.052-0.712,1.67-0.944c3.163-1.189,6.68,0.426,7.876,3.58
						c2.566,6.841,5.884,13.434,9.853,19.601l0.002,0.002c0.217,0.339,0.44,0.677,0.66,1.01c9.527,14.51,22.31,26.095,37.218,34.075
						c8.093,4.331,16.819,7.597,26,9.679c0.075,0.017,0.149,0.034,0.224,0.051c0.231,0.049,0.456,0.103,0.685,0.15
						c26.895,5.842,54.456,0.865,77.605-14.02c2.998-1.924,5.871-3.986,8.62-6.175c18.493-14.727,31.253-35.197,36.344-58.613
						c5.843-26.895,0.861-54.453-14.023-77.599c-14.883-23.128-37.894-39.116-64.786-44.965
						c-26.894-5.842-54.456-0.865-77.605,14.02c-2.947,1.892-5.786,3.93-8.506,6.096c-11.799,9.397-21.407,21.266-28.097,34.796
						c-0.413,0.834-0.988,1.532-1.672,2.073c-1.795,1.429-4.33,1.786-6.524,0.699c-3.025-1.507-4.273-5.166-2.771-8.202
						c7.487-15.138,18.239-28.422,31.433-38.934c3.048-2.427,6.222-4.706,9.516-6.824c25.903-16.654,56.737-22.223,86.828-15.684
						c30.086,6.54,55.836,24.378,72.479,50.302c16.655,25.899,22.226,56.73,15.683,86.822
						c-5.689,26.196-19.966,49.096-40.657,65.573c-3.072,2.445-6.289,4.755-9.638,6.909
						C1342.577,926.478,1276.604,914.822,1240.243,869.15z"/>
				</g>
			</g>
		</g>
		<g>
			<g>
				
					<linearGradient id="SVGID_00000170974558368259326820000012541397976353282184_" gradientUnits="userSpaceOnUse" x1="1613.3047" y1="2588.3472" x2="2173.0068" y2="909.2358">
					<stop  offset="0" style="stop-color:#09005D"/>
					<stop  offset="1" style="stop-color:#1A0F91"/>
				</linearGradient>
				<path style="fill:url(#SVGID_00000170974558368259326820000012541397976353282184_);" d="M3058.501,2649.26
					c0,24.08-19.721,43.782-43.824,43.782H644.848c-24.103,0-43.824-19.702-43.824-43.782l-19.719-1361.875
					c0-24.08,28.37-71.09,80.364-67.558l2316.059-59.928c30.242-0.783,59.483,10.858,80.899,32.204
					c21.416,21.346,33.134,50.532,32.419,80.747L3058.501,2649.26z"/>
				<path style="fill:#7D97F4;" d="M3015.236,2607.257c0,22.803-18.657,41.46-41.46,41.46H701.998
					c-22.803,0-41.46-18.657-41.46-41.46l-18.608-1236.322c2.192-74.399,67.419-101.139,106.959-99.559l2219.797-59.554
					c21.247-0.57,41.795,7.61,56.838,22.626c15.042,15.016,23.258,35.551,22.725,56.798L3015.236,2607.257z"/>
				
					<linearGradient id="SVGID_00000049218957772993185140000004437445074061267610_" gradientUnits="userSpaceOnUse" x1="814.6815" y1="1863.3789" x2="2846.2446" y2="1863.3789">
					<stop  offset="0" style="stop-color:#4F52FF"/>
					<stop  offset="1" style="stop-color:#4042E2"/>
				</linearGradient>
				<path style="fill:url(#SVGID_00000049218957772993185140000004437445074061267610_);" d="M818.885,2366.289
					c2.186-86.632,1.372-853.78-4.017-920.035c-5.389-66.254,106.49-78.681,278.259-86.138
					c171.769-7.456,1621.052-36.976,1658.368-39.766c83.878-6.273,101.24,109.358,92.848,360.383
					c-6.305,188.592-16.753,499.266-21.561,642.138c-1.431,42.541-39.131,76.294-85.278,76.411
					c-348.757,0.884-1685.439,4.417-1774.423,6.861C860.679,2408.956,818.018,2400.64,818.885,2366.289z"/>
			</g>
			
				<linearGradient id="SVGID_00000043418990964080349260000007213284869397843336_" gradientUnits="userSpaceOnUse" x1="1749.3136" y1="3317.4878" x2="1960.2299" y2="2164.2485">
				<stop  offset="0" style="stop-color:#09005D"/>
				<stop  offset="1" style="stop-color:#1A0F91"/>
			</linearGradient>
			<path style="fill:url(#SVGID_00000043418990964080349260000007213284869397843336_);" d="M3190.922,2806.094H516.647
				c-32.906,0-59.829-26.923-59.829-59.83l0,0c0-32.906,26.923-59.829,59.829-59.829h2674.275c32.906,0,59.83,26.923,59.83,59.829
				l0,0C3250.752,2779.171,3223.829,2806.094,3190.922,2806.094z"/>
			<path style="fill:#BDD0FB;" d="M1544.325,2457.575l1.302,6.659c1.193,6.102,17.919,5.747,29.881,5.747l1251.935,5.001
				c12.862,0,15.519-10.155,15.519-10.155c0-6.546-2.511-13.656-15.279-13.723l-1257.327-5.978
				C1556.481,2445.053,1542.941,2450.497,1544.325,2457.575z"/>
			
				<linearGradient id="SVGID_00000000184758130435000830000009908373910534413992_" gradientUnits="userSpaceOnUse" x1="777.3167" y1="2457.6528" x2="1958.3353" y2="2457.6528">
				<stop  offset="0" style="stop-color:#FF928E"/>
				<stop  offset="1" style="stop-color:#FE7062"/>
			</linearGradient>
			<path style="fill:url(#SVGID_00000000184758130435000830000009908373910534413992_);" d="M1955.161,2465.281
				c-2.153-6.201-4.794-12.481-7.326-18.79l-1136.114-4.107c-20.287-0.073-36.255,6.051-34.23,13.13l1.902,6.659
				c1.745,6.102,16.39,10.749,33.879,10.749h1145.064C1957.132,2470.245,1955.991,2467.673,1955.161,2465.281z"/>
			
				<linearGradient id="SVGID_00000139295645726438785710000011200322850616377010_" gradientUnits="userSpaceOnUse" x1="1970.6958" y1="2426.876" x2="1851.1307" y2="2880.3987">
				<stop  offset="0" style="stop-color:#FEBBBA"/>
				<stop  offset="1" style="stop-color:#FF928E"/>
			</linearGradient>
			<path style="fill:url(#SVGID_00000139295645726438785710000011200322850616377010_);" d="M1982.005,2465.871
				c0,11.923-9.666,21.589-21.589,21.589s-21.589-9.666-21.589-21.589c0-11.924,9.666-21.589,21.589-21.589
				S1982.005,2453.948,1982.005,2465.871z"/>
		</g>
		<g>
			<g>
				<g>
					<path style="fill:#91B3FA;" d="M3218.637,3084.873l-1320.32,0.002v-264.262l1320.32,0.002
						C3190.377,2820.615,3190.377,3084.873,3218.637,3084.873z"/>
					
						<linearGradient id="SVGID_00000102538559183213545080000013590698951090213767_" gradientUnits="userSpaceOnUse" x1="2191.3198" y1="4140.1177" x2="2698.7227" y2="2401.7935">
						<stop  offset="0" style="stop-color:#4F52FF"/>
						<stop  offset="1" style="stop-color:#4042E2"/>
					</linearGradient>
					<path style="fill:url(#SVGID_00000102538559183213545080000013590698951090213767_);" d="M1898.318,3018.745v-120.937
						c0-42.633,26.091-77.193,58.277-77.193h1298.927c1.858,0,3.378-1.52,3.378-3.378v-52.999c0-1.858-1.52-3.378-3.378-3.378
						H1871.745c-31.492,0-81.492,49.513-81.492,110.591v168.904c0,57.587,48.541,104.271,78.233,104.271h1387.035
						c1.858,0,3.378-1.52,3.378-3.378v-52.997c0-1.858-1.52-3.378-3.378-3.378h-1307.28
						C1920.669,3084.873,1898.318,3055.267,1898.318,3018.745z"/>
					<path style="opacity:0.47;fill:#FFFFFF;" d="M3190.777,3063.257l-1180.478,0.002c-51.538,0-93.318-35.698-93.318-79.733
						v-54.553c0-48.774,46.276-88.314,103.361-88.314l1170.435,0.001C3162.916,2840.661,3162.916,3063.257,3190.777,3063.257z"/>
				</g>
				
					<linearGradient id="SVGID_00000055691628032356497340000001229305505042577815_" gradientUnits="userSpaceOnUse" x1="1931.5579" y1="2874.835" x2="3176.292" y2="2874.835">
					<stop  offset="0" style="stop-color:#DAE3FE"/>
					<stop  offset="1" style="stop-color:#E9EFFD"/>
				</linearGradient>
				<path style="fill:url(#SVGID_00000055691628032356497340000001229305505042577815_);" d="M3172.914,2878.213H1934.936
					c-1.867,0-3.378-1.511-3.378-3.378c0-1.867,1.511-3.378,3.378-3.378h1237.978c1.867,0,3.378,1.511,3.378,3.378
					C3176.292,2876.702,3174.781,2878.213,3172.914,2878.213z"/>
				
					<linearGradient id="SVGID_00000121977470833318718490000014220936600302824634_" gradientUnits="userSpaceOnUse" x1="1931.5579" y1="2914.0605" x2="3176.292" y2="2914.0605">
					<stop  offset="0" style="stop-color:#DAE3FE"/>
					<stop  offset="1" style="stop-color:#E9EFFD"/>
				</linearGradient>
				<path style="fill:url(#SVGID_00000121977470833318718490000014220936600302824634_);" d="M3172.914,2917.438H1934.936
					c-1.867,0-3.378-1.511-3.378-3.378c0-1.867,1.511-3.378,3.378-3.378h1237.978c1.867,0,3.378,1.511,3.378,3.378
					C3176.292,2915.927,3174.781,2917.438,3172.914,2917.438z"/>
				
					<linearGradient id="SVGID_00000016035692609526701040000016363912626924365442_" gradientUnits="userSpaceOnUse" x1="1931.5579" y1="2953.2861" x2="3176.292" y2="2953.2861">
					<stop  offset="0" style="stop-color:#DAE3FE"/>
					<stop  offset="1" style="stop-color:#E9EFFD"/>
				</linearGradient>
				<path style="fill:url(#SVGID_00000016035692609526701040000016363912626924365442_);" d="M3172.914,2956.664H1934.936
					c-1.867,0-3.378-1.511-3.378-3.378c0-1.867,1.511-3.378,3.378-3.378h1237.978c1.867,0,3.378,1.511,3.378,3.378
					C3176.292,2955.153,3174.781,2956.664,3172.914,2956.664z"/>
				
					<linearGradient id="SVGID_00000036950181486568941270000009076813519541806004_" gradientUnits="userSpaceOnUse" x1="1931.5579" y1="2992.5085" x2="3176.292" y2="2992.5085">
					<stop  offset="0" style="stop-color:#DAE3FE"/>
					<stop  offset="1" style="stop-color:#E9EFFD"/>
				</linearGradient>
				<path style="fill:url(#SVGID_00000036950181486568941270000009076813519541806004_);" d="M3172.914,2995.886H1934.936
					c-1.867,0-3.378-1.511-3.378-3.378c0-1.867,1.511-3.378,3.378-3.378h1237.978c1.867,0,3.378,1.511,3.378,3.378
					C3176.292,2994.375,3174.781,2995.886,3172.914,2995.886z"/>
				
					<linearGradient id="SVGID_00000183227202109400620540000003420417529835049344_" gradientUnits="userSpaceOnUse" x1="1931.5579" y1="3031.7341" x2="3176.292" y2="3031.7341">
					<stop  offset="0" style="stop-color:#DAE3FE"/>
					<stop  offset="1" style="stop-color:#E9EFFD"/>
				</linearGradient>
				<path style="fill:url(#SVGID_00000183227202109400620540000003420417529835049344_);" d="M3172.914,3035.112H1934.936
					c-1.867,0-3.378-1.511-3.378-3.378c0-1.867,1.511-3.378,3.378-3.378h1237.978c1.867,0,3.378,1.511,3.378,3.378
					C3176.292,3033.601,3174.781,3035.112,3172.914,3035.112z"/>
			</g>
			<g>
				
					<linearGradient id="SVGID_00000039812731144354242570000013012984926232975005_" gradientUnits="userSpaceOnUse" x1="3316.4771" y1="1469.0261" x2="3004.6748" y2="2078.7712">
					<stop  offset="0" style="stop-color:#4F52FF"/>
					<stop  offset="1" style="stop-color:#4042E2"/>
				</linearGradient>
				<path style="fill:url(#SVGID_00000039812731144354242570000013012984926232975005_);" d="M2198.294,2762.655h1044.976
					c5.939,0,10.753-4.814,10.753-10.753v-235.925c0-5.939-4.814-10.753-10.753-10.753H2198.294
					c-5.939,0-10.753,4.814-10.753,10.753v235.925C2187.54,2757.841,2192.355,2762.655,2198.294,2762.655z"/>
				
					<rect x="3008.207" y="2534.81" transform="matrix(-1 -1.224647e-16 1.224647e-16 -1 6141.7017 5267.8794)" style="fill:#91B3FA;" width="125.288" height="198.259"/>
				
					<rect x="2942.77" y="2534.81" transform="matrix(-1 -1.224647e-16 1.224647e-16 -1 5932.5488 5267.8794)" style="fill:#91B3FA;" width="47.009" height="198.259"/>
			</g>
		</g>
		<g>
			
				<linearGradient id="SVGID_00000144333251331129331160000017551397019440999572_" gradientUnits="userSpaceOnUse" x1="11082.0859" y1="2418.8806" x2="10707.6787" y2="2632.5867" gradientTransform="matrix(-1 0 0 1 13326.4766 0)">
				<stop  offset="0" style="stop-color:#FEBBBA"/>
				<stop  offset="1" style="stop-color:#FF928E"/>
			</linearGradient>
			<path style="fill:url(#SVGID_00000144333251331129331160000017551397019440999572_);" d="M2301.314,2767.271
				c0.441-0.169,237.924-416.058,270.015-455.196c5.398-6.582,13.754-9.935,22.208-8.927l66.286,7.899l77.871,168.464
				l-129.731-75.554c12.837,88.781-153.82,220.72-210.977,268.865c-5.801,4.886-6.277,13.637-1.038,19.121l22.819,23.886
				c-37.463,37.973-80.691,62.356-129.48,73.633L2301.314,2767.271z"/>
			
				<linearGradient id="SVGID_00000160152266646159351260000001758352361312120718_" gradientUnits="userSpaceOnUse" x1="2200.686" y1="2341.5371" x2="2545.2192" y2="3329.5349">
				<stop  offset="0" style="stop-color:#09005D"/>
				<stop  offset="1" style="stop-color:#1A0F91"/>
			</linearGradient>
			<path style="fill:url(#SVGID_00000160152266646159351260000001758352361312120718_);" d="M2405.567,2702.938
				c0,0,14.563,4.705,19.494,17.675c2.36,6.207-0.183,13.235-5.58,17.101c-23.98,17.181-103.081,72.648-139.583,83.511
				c-2.992,0.89-5.839-1.817-5.166-4.865c1.873-8.479,7.932-25.413,27.454-50.202l-1.752,3.542
				c-2.216,4.483,2.666,9.151,7.021,6.693C2331.868,2762.61,2381.597,2732.444,2405.567,2702.938z"/>
			
				<linearGradient id="SVGID_00000155127188706058923430000016169737406248396941_" gradientUnits="userSpaceOnUse" x1="11045.8662" y1="2472.1772" x2="12326.9014" y2="1670.2295" gradientTransform="matrix(-1 0 0 1 13326.4766 0)">
				<stop  offset="0" style="stop-color:#FEBBBA"/>
				<stop  offset="1" style="stop-color:#FF928E"/>
			</linearGradient>
			<path style="fill:url(#SVGID_00000155127188706058923430000016169737406248396941_);" d="M2393.814,2869.344
				c0.399-0.256,36.029-86.099,36.427-86.355c32.668-198.9,112.374-369.243,135.88-414.066c3.955-7.539,11.458-12.513,19.941-13.237
				l66.513-5.678l110.353,149.218l-142.337-47.736c30.538,84.347-105.969,247.284-152.199,305.998
				c-4.691,5.958-3.387,14.625,2.854,18.935l27.18,18.774c-29.002,44.768-66.401,77.395-111.898,98.312L2393.814,2869.344z"/>
			
				<linearGradient id="SVGID_00000083789237588599449960000009722621861820069272_" gradientUnits="userSpaceOnUse" x1="2254.1504" y1="2322.8928" x2="2598.6838" y2="3310.8926">
				<stop  offset="0" style="stop-color:#09005D"/>
				<stop  offset="1" style="stop-color:#1A0F91"/>
			</linearGradient>
			<path style="fill:url(#SVGID_00000083789237588599449960000009722621861820069272_);" d="M2482.891,2785.243
				c0,0,15.214,1.659,22.667,13.365c3.566,5.6,2.498,12.997-2.004,17.877c-20.008,21.677-86.246,92.005-119.795,110.031
				c-2.75,1.478-6.086-0.598-6.043-3.719c0.119-8.683,2.625-26.494,16.726-54.72l-0.998,3.823c-1.264,4.84,4.462,8.422,8.229,5.134
				C2422.794,2858.595,2465.388,2818.99,2482.891,2785.243z"/>
			<g>
				
					<linearGradient id="SVGID_00000103226502069401402010000003788470194412473535_" gradientUnits="userSpaceOnUse" x1="-3934.8657" y1="13834.5" x2="-3585.2668" y2="13231.5674" gradientTransform="matrix(-1 0 0 1 5494.7764 0)">
					<stop  offset="0" style="stop-color:#09005D"/>
					<stop  offset="1" style="stop-color:#1A0F91"/>
				</linearGradient>
				<path style="fill:url(#SVGID_00000103226502069401402010000003788470194412473535_);" d="M2963.911,2318.581
					c0,0,60.169,89.493,65.106,130.316c4.937,40.823-16.637,54.94-79.614,60.146c-187.408,15.493-279.792-40.674-279.792-40.674
					c-12.82-81.74-21.942-102.535-129.011-146.98c0,0,135.425,10.752,162.679,0.176
					C2730.533,2310.988,2963.911,2318.581,2963.911,2318.581z"/>
			</g>
			<g>
				
					<linearGradient id="SVGID_00000132082599660339082510000010302702314971843209_" gradientUnits="userSpaceOnUse" x1="-4448.8433" y1="2044.6339" x2="-4356.7759" y2="2275.5833" gradientTransform="matrix(0.9446 -0.3283 0.3283 0.9446 6190.9395 -1699.1722)">
					<stop  offset="0" style="stop-color:#09005D"/>
					<stop  offset="1" style="stop-color:#1A0F91"/>
				</linearGradient>
				<path style="fill:url(#SVGID_00000132082599660339082510000010302702314971843209_);" d="M2723.977,1817.181
					c0,0,41.908-49.584,86.461,11.251c8.069,11.019,39.062,1.928,50.423,24.99c5.866,11.907,18.538,18.672,31.591,16.264
					c32.51-5.996,85.65-6.501,111.886,44.445c20.027,38.887,4.565,61.645-15.454,74.62c-14.703,9.531-19.951,28.878-11.06,43.975
					c8.528,14.481,10.132,34.092-11.888,57.692c-49.346,52.888-147.028-33.563-147.028-33.563l-77.558-183.272L2723.977,1817.181z"
					/>
				
					<linearGradient id="SVGID_00000039845733094723503140000000556928699447532942_" gradientUnits="userSpaceOnUse" x1="3423.0271" y1="1502.8943" x2="2970.3826" y2="2016.342">
					<stop  offset="0" style="stop-color:#FF928E"/>
					<stop  offset="1" style="stop-color:#FE7062"/>
				</linearGradient>
				<path style="fill:url(#SVGID_00000039845733094723503140000000556928699447532942_);" d="M2801.19,2306.733
					c0,0-70.067-66.717-104.558-110.908c-18.643-23.887-24.498-55.334-15.877-84.383c15.747-53.051,43.731-107.997,46.283-116.549
					c3.912-13.108,82.476-12.563,82.476-12.563s154.597,100.336,215.339,270.296l-68.216,21.238c0,0-40.366-67.721-80.249-110.776
					c0,0,69.013,91.168,71.442,128.49L2801.19,2306.733z"/>
				
					<linearGradient id="SVGID_00000101070138285874178600000015456413318558803338_" gradientUnits="userSpaceOnUse" x1="-2029.863" y1="2295.6982" x2="-1656.8984" y2="2295.6982" gradientTransform="matrix(1 0 0 1 4930.0132 0)">
					<stop  offset="0" style="stop-color:#FEBBBA"/>
					<stop  offset="1" style="stop-color:#FF928E"/>
				</linearGradient>
				<path style="fill:url(#SVGID_00000101070138285874178600000015456413318558803338_);" d="M2667.69,2333.062l52.647-57.282
					l60.804,16.373c0,0,70.887,10.982,111.458,0c40.571-10.982,40.571-10.982,40.571-10.982l91.683-28.544l14.399,40.695
					c3.656,10.332-0.017,21.803-8.951,28.151c-7.932,5.636-17.23,11.83-23.156,14.423c-12.074,5.281-278.131,1.67-278.131,1.67
					L2667.69,2333.062z"/>
				
					<linearGradient id="SVGID_00000177478074733209654070000013831604390663859889_" gradientUnits="userSpaceOnUse" x1="-3982.0295" y1="1731.421" x2="-3963.7976" y2="1598.0399" gradientTransform="matrix(0.9974 -0.0717 0.0717 0.9974 6595.8838 105.0094)">
					<stop  offset="0" style="stop-color:#FEBBBA"/>
					<stop  offset="1" style="stop-color:#FF928E"/>
				</linearGradient>
				<path style="fill:url(#SVGID_00000177478074733209654070000013831604390663859889_);" d="M2755.52,1887.871l52.803,98.188
					c-3.486,21.433-57.47,22.038-65.809,9.24c-0.849-1.302-1.334-2.809-1.656-4.33l-31.587-65.607
					c-1.356-6.398,16.182-27.954,21.955-31.026l20.988-11.172C2760.294,1878.862,2726.572,1878.523,2755.52,1887.871z"/>
				<g>
					
						<linearGradient id="SVGID_00000162327356055334063030000004766372128761581225_" gradientUnits="userSpaceOnUse" x1="-6072.2646" y1="2265.6504" x2="-5900.5986" y2="1960.1426" gradientTransform="matrix(0.5458 -0.8379 0.8379 0.5458 4176.8994 -4320.769)">
						<stop  offset="0" style="stop-color:#FEBBBA"/>
						<stop  offset="1" style="stop-color:#FF928E"/>
					</linearGradient>
					<path style="fill:url(#SVGID_00000162327356055334063030000004766372128761581225_);" d="M2648.656,1864.826
						c0,0-5.96,33.173,20.114,75.352c26.073,42.177,52.037,40.273,65.229,25.231c13.19-15.043,28.991-40.094,21.802-82.162
						C2748.612,1841.179,2657.663,1822.523,2648.656,1864.826z"/>
					
						<linearGradient id="SVGID_00000075163022084405784370000015579278023965388949_" gradientUnits="userSpaceOnUse" x1="-6035.3501" y1="1999.6012" x2="-5949.5176" y2="2214.9094" gradientTransform="matrix(0.5458 -0.8379 0.8379 0.5458 4176.8994 -4320.769)">
						<stop  offset="0" style="stop-color:#09005D"/>
						<stop  offset="1" style="stop-color:#1A0F91"/>
					</linearGradient>
					<path style="fill:url(#SVGID_00000075163022084405784370000015579278023965388949_);" d="M2724.236,1887.819
						c0,0-42.219-55.455-74.633-7.113l0.546,16.7c0,0-42.151-1.971-37.58-40.82c4.571-38.851,38.983-65.39,86.69-52.117
						c47.706,13.273,75.582,28.389,80.97,61.511c5.387,33.123-21.658,27.711-21.658,27.711s-10.331-22.854-22.806-24.415
						c-12.475-1.561-7.967,16.517-7.967,16.517L2724.236,1887.819z"/>
					
						<linearGradient id="SVGID_00000075144872366599899570000007113792903834203577_" gradientUnits="userSpaceOnUse" x1="-6035.7222" y1="2286.1799" x2="-5864.0581" y2="1980.6753" gradientTransform="matrix(0.5458 -0.8379 0.8379 0.5458 4176.8994 -4320.769)">
						<stop  offset="0" style="stop-color:#FEBBBA"/>
						<stop  offset="1" style="stop-color:#FF928E"/>
					</linearGradient>
					<path style="fill:url(#SVGID_00000075144872366599899570000007113792903834203577_);" d="M2733.925,1886.34
						c0,0-21.87-28.379-1.963-34.269c19.907-5.89,19.163,27.808,17.866,40.345L2733.925,1886.34z"/>
				</g>
			</g>
			<g>
				
					<linearGradient id="SVGID_00000087403117502522322080000004373829120272928690_" gradientUnits="userSpaceOnUse" x1="-2118.9146" y1="2244.4429" x2="-2314.0239" y2="2297.917" gradientTransform="matrix(0.9988 -0.0494 0.0494 0.9988 4888.5444 -55.0328)">
					<stop  offset="0" style="stop-color:#4F52FF"/>
					<stop  offset="1" style="stop-color:#4042E2"/>
				</linearGradient>
				<path style="fill:url(#SVGID_00000087403117502522322080000004373829120272928690_);" d="M2841.963,2355.732
					c-0.185,0.009-0.37,0.014-0.557,0.013l-242.16-0.264c-5.987-0.005-10.834-4.863-10.828-10.849
					c0.005-5.989,4.881-10.936,10.851-10.828l242.16,0.264c5.985,0.005,10.833,4.863,10.828,10.85
					C2852.25,2350.718,2847.69,2355.45,2841.963,2355.732z"/>
				
					<linearGradient id="SVGID_00000037652250529581212300000005779394909924461209_" gradientUnits="userSpaceOnUse" x1="8997.7559" y1="2259.9854" x2="10752.5596" y2="2112.3457" gradientTransform="matrix(1 0 0 1 -6621.0962 0)">
					<stop  offset="0" style="stop-color:#09005D"/>
					<stop  offset="1" style="stop-color:#1A0F91"/>
				</linearGradient>
				<path style="fill:url(#SVGID_00000037652250529581212300000005779394909924461209_);" d="M2381.555,2135.866h201.673
					c14.877,0,28.418,8.586,34.765,22.042l93.233,197.695h-250.625c-9.588,0-18.202-5.858-21.726-14.774l-72.298-182.938
					C2362.4,2147.321,2370.19,2135.866,2381.555,2135.866z"/>
				
					<linearGradient id="SVGID_00000174573548890110112590000007886223622171072147_" gradientUnits="userSpaceOnUse" x1="-2394.729" y1="2201.7817" x2="-2457.5439" y2="2296.3738" gradientTransform="matrix(1 0 0 1 4930.0132 0)">
					<stop  offset="0" style="stop-color:#4F52FF"/>
					<stop  offset="1" style="stop-color:#4042E2"/>
				</linearGradient>
				<path style="fill:url(#SVGID_00000174573548890110112590000007886223622171072147_);" d="M2523.635,2237.23
					c4.371,13.578,1.142,26.765-7.211,29.454c-8.353,2.688-18.667-6.139-23.037-19.717c-4.371-13.577-1.142-26.765,7.211-29.452
					C2508.951,2214.825,2519.265,2223.653,2523.635,2237.23z"/>
			</g>
		</g>
		<g>
			
				<linearGradient id="SVGID_00000101789981717830459960000002176445615089086086_" gradientUnits="userSpaceOnUse" x1="3178.467" y1="416.1731" x2="2840.6724" y2="1051.2264">
				<stop  offset="0" style="stop-color:#FF928E"/>
				<stop  offset="1" style="stop-color:#FE7062"/>
			</linearGradient>
			<path style="fill:url(#SVGID_00000101789981717830459960000002176445615089086086_);" d="M2524.373,992.18l-41.775,150.543
				c-5.671,20.435-2.229,42.326,9.503,59.993c29.461,44.367,101.486,124.486,254.196,165.356
				c155.097,41.508,242.901-1.197,280.686-29.333c13.681-10.187,23.626-24.576,28.328-40.972l45.726-159.43L2524.373,992.18z"/>
			
				<linearGradient id="SVGID_00000088090957410791570130000005740548723149160581_" gradientUnits="userSpaceOnUse" x1="2799.2559" y1="1243.4863" x2="2873.5708" y2="703.0157">
				<stop  offset="0" style="stop-color:#FF928E"/>
				<stop  offset="1" style="stop-color:#FE7062"/>
			</linearGradient>
			<path style="fill:url(#SVGID_00000088090957410791570130000005740548723149160581_);" d="M2855.009,798.409l-434.394,121.685
				c-22.367,6.266-28.709,34.938-11.056,50.036c86.109,73.644,281.803,245.177,355.922,344.8
				c7.929,10.657,22.095,14.528,34.368,9.447l439.528-181.938c19.882-8.23,24.238-34.459,8.068-48.656
				c-85.273-74.866-302.28-262.313-372.823-293.961C2868.457,797.055,2861.517,796.586,2855.009,798.409z"/>
			
				<linearGradient id="SVGID_00000038372647013349830430000016595630433364178339_" gradientUnits="userSpaceOnUse" x1="3475.3621" y1="536.3574" x2="3117.2998" y2="1110.6068">
				<stop  offset="0" style="stop-color:#FF928E"/>
				<stop  offset="1" style="stop-color:#FE7062"/>
			</linearGradient>
			<path style="fill:url(#SVGID_00000038372647013349830430000016595630433364178339_);" d="M2845.611,1022.813
				c0,0,231.587,146.078,249.235,179.453c17.647,33.374-17.878,185.086-17.878,185.086
				c36.459,128.405,41.857,267.841-19.727,340.786c0,0-75.924-168.853-42.006-240.022c33.918-71.17,46.99-100.344,46.99-100.344
				s29.672-161.729,20.288-184.85C3082.513,1202.922,2825.956,1032.064,2845.611,1022.813z"/>
			<path style="fill:#FFFFFF;" d="M2479.071,960.383l222.316,219.298l55.579,54.824l13.895,13.706l6.936,6.818
				c2.166,2.127,4.616,3.947,7.189,5.547c10.358,6.37,23.558,7.88,35.135,3.816l148.051-49.597c1.169-0.392,2.434,0.238,2.825,1.407
				c0.39,1.164-0.233,2.423-1.391,2.82l-147.671,50.717c-13.013,4.681-28.144,3.128-40.024-4.077
				c-2.959-1.805-5.775-3.874-8.276-6.288l-7.034-6.81l-13.998-13.601l-55.993-54.402l-223.971-217.606
				c-1.822-1.77-1.864-4.681-0.094-6.503c1.77-1.821,4.681-1.863,6.502-0.094L2479.071,960.383z"/>
			<path style="fill:#FFFFFF;" d="M3060.02,1465.373l-0.44,0.467l-0.514,0.608l-1.042,1.233l-2,2.692
				c-1.32,1.816-2.476,3.812-3.731,5.709l-3.299,6.068c-1.027,2.069-1.926,4.213-2.899,6.317c-1.024,2.083-1.783,4.29-2.575,6.483
				c-0.777,2.198-1.641,4.367-2.353,6.591l-1.893,6.766c-0.61,2.262-1.348,4.493-1.728,6.819l-1.379,6.919
				c-0.44,2.312-1.004,4.602-1.21,6.957c-0.552,4.685-1.185,9.366-1.68,14.066l-0.682,14.189c-0.045,1.183-0.141,2.365-0.146,3.551
				l0.083,3.558l0.165,7.12c-0.079,9.511,1.22,18.966,1.985,28.458c0.155,2.379,0.542,4.731,0.925,7.084l1.112,7.066
				c0.763,4.707,1.433,9.433,2.273,14.132c2.106,9.312,4.015,18.682,6.283,27.968l7.786,27.632l0.023,0.083
				c0.24,0.85-0.255,1.733-1.105,1.973c-0.836,0.236-1.704-0.241-1.96-1.065l-8.558-27.598c-2.529-9.295-4.703-18.698-7.072-28.052
				c-0.973-4.725-1.777-9.49-2.674-14.236l-1.312-7.129c-0.449-2.375-0.903-4.749-1.125-7.16
				c-1.032-9.618-2.595-19.196-2.775-28.913l-0.356-7.271l-0.177-3.636c-0.027-1.214,0.038-2.429,0.053-3.644l0.323-14.592
				c0.381-4.856,0.905-9.71,1.355-14.571c0.154-2.439,0.672-4.837,1.066-7.252l1.25-7.238c0.337-2.429,1.042-4.79,1.62-7.177
				l1.806-7.15c0.689-2.363,1.537-4.686,2.302-7.031c0.779-2.343,1.528-4.697,2.559-6.96c0.979-2.279,1.884-4.589,2.933-6.846
				l3.408-6.673c1.328-2.148,2.534-4.344,3.978-6.45l2.215-3.143l1.24-1.552l0.631-0.78l0.776-0.86
				c1.701-1.885,4.608-2.035,6.493-0.334c1.885,1.701,2.035,4.608,0.334,6.493c-0.017,0.019-0.034,0.037-0.051,0.056
				L3060.02,1465.373z"/>
			<path style="fill:#FFFFFF;" d="M3067.094,1525.136l-0.011,9.037l0.078,10.188l0.266,20.415l0.7,40.856l1.647,81.726
				c0.032,1.381-1.061,2.525-2.44,2.557c-1.357,0.031-2.488-1.036-2.555-2.384l-3.745-81.675l-1.75-40.852l-0.792-20.444
				l-0.342-10.244l-0.127-5.163l-0.051-2.597c0.007-1.116,0.084-2.437,0.195-3.635c0.229-2.46,2.409-4.268,4.869-4.039
				c2.316,0.215,4.055,2.161,4.059,4.44L3067.094,1525.136z"/>
		</g>
		<g>
			<path style="fill:#91B3FA;" d="M1517.192,1603.364H583.34c-37.858,0-69.501-28.801-73.054-66.491L451.43,912.451
				c-4.006-42.501,28.975-79.437,71.657-80.25l992.708-18.9c41.064-0.782,74.774,32.292,74.774,73.364v643.321
				C1590.569,1570.511,1557.717,1603.364,1517.192,1603.364z"/>
			<path style="opacity:0.5;fill:#FFFFFF;" d="M511.119,968.104l41.741,539.943c1.813,23.454,21.248,41.635,44.772,41.882
				l896.291,9.389c25.248,0.264,45.857-20.13,45.857-45.379V932.636c0-25.67-21.273-46.23-46.928-45.355L554.82,919.25
				C529.004,920.13,509.128,942.35,511.119,968.104z"/>
			<path style="opacity:0.5;fill:#FFFFFF;" d="M612.677,1461.023h806.575c23.752,0,42.934-19.391,42.676-43.141l-4.079-376.406
				l-68.592,86.77l-55.533,7.092c0,0-49.748,1.773-63.098,3.546c-13.35,1.773-74.85,15.957-74.85,15.957l-59.312,30.141
				l-13.937,38.306l-40.779,23.377l-44.212,26.001h-89.903l-110.56-49.378h-37.531l-68.147,39.707l-63.806,74.063L612.677,1461.023z
				"/>
			
				<linearGradient id="SVGID_00000054250759753094277940000006801763527183916696_" gradientUnits="userSpaceOnUse" x1="874.5598" y1="-112.5364" x2="874.5598" y2="454.9598">
				<stop  offset="0" style="stop-color:#DAE3FE"/>
				<stop  offset="1" style="stop-color:#E9EFFD"/>
			</linearGradient>
			<path style="fill:url(#SVGID_00000054250759753094277940000006801763527183916696_);" d="M621.57,999.105l505.431-15.118
				c5.181-0.155,9.465,4.003,9.465,9.186v8.138c0,5.026-4.038,9.12-9.063,9.189l-505.431,6.98c-5.125,0.071-9.317-4.064-9.317-9.189
				l0,0C612.654,1003.323,616.603,999.254,621.57,999.105z"/>
			
				<linearGradient id="SVGID_00000015315027944009602690000011693090234624336046_" gradientUnits="userSpaceOnUse" x1="874.5598" y1="-112.532" x2="874.5598" y2="454.9622">
				<stop  offset="0" style="stop-color:#DAE3FE"/>
				<stop  offset="1" style="stop-color:#E9EFFD"/>
			</linearGradient>
			<path style="fill:url(#SVGID_00000015315027944009602690000011693090234624336046_);" d="M612.654,1050.666v3.468
				c0,5.076,4.115,9.19,9.19,9.19h505.431c5.076,0,9.19-4.115,9.19-9.19v-3.468c0-5.075-4.115-9.19-9.19-9.19H621.844
				C616.769,1041.476,612.654,1045.59,612.654,1050.666z"/>
			
				<linearGradient id="SVGID_00000046313704367335998580000010739677807077514120_" gradientUnits="userSpaceOnUse" x1="957.6093" y1="1199.0483" x2="2088.7944" y2="1886.9792">
				<stop  offset="0" style="stop-color:#E1473D"/>
				<stop  offset="1" style="stop-color:#E9605A"/>
			</linearGradient>
			<path style="fill:url(#SVGID_00000046313704367335998580000010739677807077514120_);" d="M615.439,1461.023
				c-2.238,0-4.51-0.441-6.701-1.37c-8.732-3.705-12.808-13.788-9.101-22.52c58.254-137.283,123.72-212.019,200.133-228.477
				c52.639-11.344,93.355,9.569,129.273,28.022c38.225,19.632,71.24,36.593,116.497,19.499
				c34.137-12.892,52.848-36.613,72.658-61.726c24.694-31.308,50.228-63.679,104.291-72.852c27.04-4.584,48.182-1.016,66.836,2.129
				c22.567,3.808,40.394,6.813,65.088-5.116c29.02-14.021,54.418-42.175,75.488-83.678c4.296-8.459,14.64-11.832,23.09-7.541
				c8.459,4.294,11.835,14.633,7.541,23.09c-24.553,48.363-55.229,81.692-91.174,99.059c-34.56,16.7-60.586,12.307-85.75,8.06
				c-17.515-2.954-34.059-5.75-55.374-2.134c-41.025,6.959-60.507,31.658-83.064,60.257c-20.826,26.401-44.428,56.327-87.492,72.591
				c-59.526,22.48-104.581-0.666-144.329-21.081c-33.79-17.355-65.71-33.757-106.346-24.996
				c-63.788,13.739-122.918,83.826-175.745,208.314C628.482,1457.093,622.125,1461.023,615.439,1461.023z"/>
		</g>
		<g>
			<defs>
				
					<rect id="SVGID_00000078045949563961660440000005422413085366055813_" x="934.874" y="1027.094" width="1318.608" height="1378.302"/>
			</defs>
			<clipPath id="SVGID_00000018951985501369066450000010475657255949968549_">
				<use xlink:href="#SVGID_00000078045949563961660440000005422413085366055813_"  style="overflow:visible;"/>
			</clipPath>
			<g style="clip-path:url(#SVGID_00000018951985501369066450000010475657255949968549_);">
				<g>
					
						<linearGradient id="SVGID_00000085246282345462074890000014909586131801637521_" gradientUnits="userSpaceOnUse" x1="1209.5701" y1="1540.0227" x2="1010.3272" y2="1261.7693">
						<stop  offset="0" style="stop-color:#FEBBBA"/>
						<stop  offset="1" style="stop-color:#FF928E"/>
					</linearGradient>
					<path style="fill:url(#SVGID_00000085246282345462074890000014909586131801637521_);" d="M1106.561,1446.308
						c-1.926,6.123,20.377,15.446,33.509-9.596c0.46-12.001,7.758-63.418,0.587-73.195
						c-38.194-52.073-112.247-117.349-112.247-117.349c-12.516,12.349-2.205,24.48-2.205,24.48l35.923,37.422
						c-7.514,13.579-16.679,25.041-20.974,41.464c-3.254,12.437-1.264,25.729,5.019,37.05c6.306,11.36,14.909,26.127,23.043,37.685
						C1084.609,1446.144,1106.561,1446.308,1106.561,1446.308z"/>
					
						<linearGradient id="SVGID_00000090981949324675066190000003883412854986304394_" gradientUnits="userSpaceOnUse" x1="1207.4259" y1="1217.6729" x2="812.3766" y2="1732.9542">
						<stop  offset="0" style="stop-color:#FEBBBA"/>
						<stop  offset="1" style="stop-color:#FF928E"/>
					</linearGradient>
					<path style="fill:url(#SVGID_00000090981949324675066190000003883412854986304394_);" d="M1077.841,1332.353l32.737,27.752
						l10.278,27.629l-29.189,32.381c0,0-9.813-54.823-17.107-66.689C1067.266,1341.56,1071.049,1335.823,1077.841,1332.353z"/>
				</g>
				<g>
					
						<linearGradient id="SVGID_00000012452505721919225010000008780912249635800451_" gradientUnits="userSpaceOnUse" x1="2584.3416" y1="3425.3562" x2="1785.7548" y2="4293.9951" gradientTransform="matrix(-1 0 0 1 4056.9614 0)">
						<stop  offset="0" style="stop-color:#09005D"/>
						<stop  offset="1" style="stop-color:#1A0F91"/>
					</linearGradient>
					<path style="fill:url(#SVGID_00000012452505721919225010000008780912249635800451_);" d="M1725.054,3490.064
						c0,0,8.271,46.82,12.325,93.167c1.585,18.112-12.379,33.839-30.547,34.597c-61.72,2.569-193.742,7.568-241.116,5.454
						c-7.122-0.318-11.779-7.608-9.143-14.232c2.21-5.55,6.47-10.038,11.897-12.532l218.075-100.227L1725.054,3490.064z"/>
					
						<linearGradient id="SVGID_00000079478636853058330180000004655671075659062442_" gradientUnits="userSpaceOnUse" x1="2325.1321" y1="3489.8708" x2="2396.0664" y2="3489.8708" gradientTransform="matrix(-1 0 0 1 4056.9614 0)">
						<stop  offset="0" style="stop-color:#FEBBBA"/>
						<stop  offset="1" style="stop-color:#FF928E"/>
					</linearGradient>
					<path style="fill:url(#SVGID_00000079478636853058330180000004655671075659062442_);" d="M1731.829,3462.555l-6.645,56.002
						c0,0-38.202,17.784-64.29-2.241l15.82-62.411L1731.829,3462.555z"/>
					
						<linearGradient id="SVGID_00000092445034765053171900000015560985427506481562_" gradientUnits="userSpaceOnUse" x1="2647.2217" y1="2443.0181" x2="1967.7008" y2="3364.021" gradientTransform="matrix(-1 0 0 1 4056.9614 0)">
						<stop  offset="0" style="stop-color:#09005D"/>
						<stop  offset="1" style="stop-color:#1A0F91"/>
					</linearGradient>
					<path style="fill:url(#SVGID_00000092445034765053171900000015560985427506481562_);" d="M1726.835,2409.684
						c2.871,14.625,15.405,729.812-61.042,1050.312c-1.247,5.229,1.404,10.62,6.381,12.654c11.725,4.791,34.712,11.728,62.26,12.653
						c8.532,0.287,16.18-5.258,18.587-13.447c21.852-74.361,126.565-446.93,140.226-802.834c15.263-397.688,0-13.542,0-13.542
						l-8.953-245.826L1726.835,2409.684z"/>
					
						<linearGradient id="SVGID_00000135682514990296472590000014078473381326925712_" gradientUnits="userSpaceOnUse" x1="2405.1895" y1="3260.656" x2="1606.6074" y2="4129.29" gradientTransform="matrix(-1 0 0 1 4056.9614 0)">
						<stop  offset="0" style="stop-color:#09005D"/>
						<stop  offset="1" style="stop-color:#1A0F91"/>
					</linearGradient>
					<path style="fill:url(#SVGID_00000135682514990296472590000014078473381326925712_);" d="M1975.913,3514.49
						c0,0,13.165,23.636,25.911,86.444c2.3,11.343-5.625,22.199-17.144,23.331c-20.38,2.004-51.754,4.582-76.885,4.408
						c-11.586-0.079-20.627-10.167-19.231-21.668c2.783-22.926,11.456-60.538,38.247-89.854L1975.913,3514.49z"/>
					
						<linearGradient id="SVGID_00000088853377491222377560000017757884243205427333_" gradientUnits="userSpaceOnUse" x1="2069.4849" y1="3486.2339" x2="2130.7305" y2="3486.2339" gradientTransform="matrix(-1 0 0 1 4056.9614 0)">
						<stop  offset="0" style="stop-color:#FEBBBA"/>
						<stop  offset="1" style="stop-color:#FF928E"/>
					</linearGradient>
					<path style="fill:url(#SVGID_00000088853377491222377560000017757884243205427333_);" d="M1987.477,3442.458l-15.526,84.69
						c0,0-15.352,11.42-45.719,3.142l7.41-91.122L1987.477,3442.458z"/>
					
						<linearGradient id="SVGID_00000074412835998225643380000011863221182669385393_" gradientUnits="userSpaceOnUse" x1="2526.1147" y1="2353.6646" x2="1846.5941" y2="3274.6672" gradientTransform="matrix(-1 0 0 1 4056.9614 0)">
						<stop  offset="0" style="stop-color:#09005D"/>
						<stop  offset="1" style="stop-color:#1A0F91"/>
					</linearGradient>
					<path style="fill:url(#SVGID_00000074412835998225643380000011863221182669385393_);" d="M2029.419,2431.63
						c62.525,377.34-13.562,932.625-39.223,1041.308c-1.57,6.654-6.941,11.752-13.686,12.87
						c-11.454,1.899-30.312,3.448-48.904-1.952c-6.405-1.86-10.905-7.637-11.167-14.304c-3.443-87.866,2.754-627.283-55.505-840.463
						c-2.952-10.804-9.549-20.225-18.678-26.715l-113.076-80.387l-8.669-129.939L2029.419,2431.63z"/>
					<g>
						
							<linearGradient id="SVGID_00000029764519481135443630000002371650698527810748_" gradientUnits="userSpaceOnUse" x1="23309.8672" y1="6700.3989" x2="22159.7344" y2="6447.0649" gradientTransform="matrix(-1 0 0 1 4056.9614 0)">
							<stop  offset="0" style="stop-color:#FF928E"/>
							<stop  offset="1" style="stop-color:#FE7062"/>
						</linearGradient>
						<path style="fill:url(#SVGID_00000029764519481135443630000002371650698527810748_);" d="M1631.013,1716.646
							c187.374-3.095,394.119,49.198,394.119,49.198c55.853,325.896,9.767,701.794,9.767,701.794
							c-145.06,38.041-308.697-23.258-308.697-23.258c-24.11-136.218-136.6-519.576-136.6-519.576
							c-91.55-11.361-166.968-37.776-229.075-72.697c47.374-54.913,69.707-124.787,79.407-166.092
							C1506.183,1706.604,1573.219,1717.601,1631.013,1716.646z"/>
						
							<linearGradient id="SVGID_00000168092004686734255390000016609611705422324138_" gradientUnits="userSpaceOnUse" x1="2051.7458" y1="1217.0565" x2="2176.9001" y2="1574.6415" gradientTransform="matrix(1 0 0 1 -918.3207 0)">
							<stop  offset="0" style="stop-color:#FEBBBA"/>
							<stop  offset="1" style="stop-color:#FF928E"/>
						</linearGradient>
						<path style="fill:url(#SVGID_00000168092004686734255390000016609611705422324138_);" d="M1077.544,1440.654
							c18.407-22.231,41.703-11.715,41.703-11.715c27.574,116.475,172.153,210.914,320.688,257.076
							c-9.7,41.305-32.033,111.179-79.407,166.092C1114.02,1713.507,1077.544,1440.654,1077.544,1440.654z"/>
					</g>
					
						<linearGradient id="SVGID_00000120555106930788131390000004466867849324587691_" gradientUnits="userSpaceOnUse" x1="23328.0879" y1="6617.5889" x2="22177.957" y2="6364.2554" gradientTransform="matrix(-1 0 0 1 4056.9614 0)">
						<stop  offset="0" style="stop-color:#FF928E"/>
						<stop  offset="1" style="stop-color:#FE7062"/>
					</linearGradient>
					<path style="fill:url(#SVGID_00000120555106930788131390000004466867849324587691_);" d="M1953.263,1947.277l71.869-181.433
						c0,0,175.018,118.917,203.801,269.69c-33.07,2.435-93.246,11.037-152.147,40.778
						C2063.842,2005.119,1953.263,1947.277,1953.263,1947.277z"/>
					
						<linearGradient id="SVGID_00000108308020870736026580000006825061112847109531_" gradientUnits="userSpaceOnUse" x1="2171.8704" y1="2288.4104" x2="1705.7374" y2="1538.545">
						<stop  offset="0" style="stop-color:#FEBBBA"/>
						<stop  offset="1" style="stop-color:#FF928E"/>
					</linearGradient>
					<path style="fill:url(#SVGID_00000108308020870736026580000006825061112847109531_);" d="M1820.806,1564.527l59.62,172.416
						c0.986,2.855-0.187,6.019-2.831,7.481c-16.251,8.985-74.803,34.958-145.364-9.779c-7.35-4.66-12.354-12.26-13.47-20.893
						l-19.307-149.225H1820.806z"/>
					<g>
						
							<linearGradient id="SVGID_00000059293952609950878230000011742428574381950354_" gradientUnits="userSpaceOnUse" x1="-3598.552" y1="-61.847" x2="-3666.3088" y2="-285.3251" gradientTransform="matrix(-0.746 -0.6659 -0.6659 0.746 -1069.3739 -803.1727)">
							<stop  offset="0" style="stop-color:#FEBBBA"/>
							<stop  offset="1" style="stop-color:#FF928E"/>
						</linearGradient>
						<path style="fill:url(#SVGID_00000059293952609950878230000011742428574381950354_);" d="M1691.084,1404.866
							c0,0-65.469,123.237-57.077,173.019c8.392,49.78,89.53,46.207,160.382,5.775l49.51-133.068L1691.084,1404.866z"/>
						
							<linearGradient id="SVGID_00000052097260564738635690000009017302033566459525_" gradientUnits="userSpaceOnUse" x1="-3659.6824" y1="-451.2254" x2="-3603.0042" y2="-127.9493" gradientTransform="matrix(-0.746 -0.6659 -0.6659 0.746 -1069.3739 -803.1727)">
							<stop  offset="0" style="stop-color:#09005D"/>
							<stop  offset="1" style="stop-color:#1A0F91"/>
						</linearGradient>
						<path style="fill:url(#SVGID_00000052097260564738635690000009017302033566459525_);" d="M1791.257,1518.312
							c-2.879-1.276-3.941-4.799-2.217-7.434c5.246-8.013,15.078-24.36,18.215-38.671c0,0,11.768-7.539-29.956-17.524
							c-41.724-9.988-103.946-25.49-117.023-61.004c-12.752-34.626,20.751-121.706,74.203-52.322
							c2.033,2.64,6.017,2.697,8.047,0.056c8.763-11.405,31.8-35.076,63.783-20.725c29.93,13.429,33.3,35.361,32.89,46.417
							c-0.12,3.25,2.787,5.78,5.983,5.169c15.133-2.885,51.446-5.365,68.396,31.887c13.961,30.684,4.886,48.054-3.376,56.549
							c-2.679,2.752-1.506,7.284,2.167,8.408c9.944,3.044,22.787,11.477,21.502,34.778c-1.778,32.212-37.792,29.373-48.045,27.906
							c-1.682-0.241-3.373,0.336-4.511,1.594c-8.792,9.73-48.404,51.042-91.277,56.022c-3.712,0.431-6.589-3.236-5.374-6.769
							l18.555-53.935c0.861-2.505-0.338-5.252-2.759-6.325L1791.257,1518.312z"/>
						
							<linearGradient id="SVGID_00000180355384883666769310000013989025545251113350_" gradientUnits="userSpaceOnUse" x1="-3667.8159" y1="-62.888" x2="-3728.7778" y2="-263.9549" gradientTransform="matrix(-0.746 -0.6659 -0.6659 0.746 -1069.3739 -803.1727)">
							<stop  offset="0" style="stop-color:#FEBBBA"/>
							<stop  offset="1" style="stop-color:#FF928E"/>
						</linearGradient>
						<path style="fill:url(#SVGID_00000180355384883666769310000013989025545251113350_);" d="M1783.799,1525.967
							c0,0,46.613-31.983,50.019-5.05c3.405,26.932-41.977,39.012-64.454,28.971L1783.799,1525.967z"/>
					</g>
					
						<linearGradient id="SVGID_00000020362188378575680950000010129060847732672927_" gradientUnits="userSpaceOnUse" x1="-4074.3162" y1="2995.502" x2="-4221.7246" y2="1936.8375" gradientTransform="matrix(-1 0 0 1 -2041.7184 0)">
						<stop  offset="0" style="stop-color:#FEBBBA"/>
						<stop  offset="1" style="stop-color:#FF928E"/>
					</linearGradient>
					<path style="fill:url(#SVGID_00000020362188378575680950000010129060847732672927_);" d="M2076.786,2076.313
						c0,0,61.172,275.969,5.76,431.118c67.931,31.498,55.383,25.56,55.383,25.56s134.391-392.659,91.004-497.456
						C2143.392,2026.46,2100.96,2049.444,2076.786,2076.313z"/>
					
						<linearGradient id="SVGID_00000130625475438245632420000017444314374457489292_" gradientUnits="userSpaceOnUse" x1="-4091.8694" y1="2893.6631" x2="-4209.5015" y2="2048.8469" gradientTransform="matrix(-1 0 0 1 -2041.7184 0)">
						<stop  offset="0" style="stop-color:#FEBBBA"/>
						<stop  offset="1" style="stop-color:#FF928E"/>
					</linearGradient>
					<path style="fill:url(#SVGID_00000130625475438245632420000017444314374457489292_);" d="M2082.546,2507.431
						c0,0-35.006,45.307-32.206,63.353c2.8,18.046,3.468,25.398,3.468,25.398s17.59-12.03,16.481-27.403
						c-2.445,48.791-18.775,104.265-3.926,101.592c14.848-2.674,91.71-73.521,74.332-149.046
						C2101.263,2493.922,2090.209,2496.901,2082.546,2507.431z"/>
				</g>
			</g>
		</g>
	</g>
</g>
</svg>
