<?xml version="1.0" encoding="utf-8"?>
<!-- Generator: Adobe Illustrator 28.0.0, SVG Export Plug-In . SVG Version: 6.00 Build 0)  -->
<svg version="1.1"
	 id="svg5" xmlns:svg="http://www.w3.org/2000/svg" xmlns:sodipodi="http://sodipodi.sourceforge.net/DTD/sodipodi-0.dtd" xmlns:inkscape="http://www.inkscape.org/namespaces/inkscape" inkscape:export-ydpi="96"
	 xmlns="http://www.w3.org/2000/svg" xmlns:xlink="http://www.w3.org/1999/xlink" x="0px" y="0px" viewBox="0 0 4082.8 1401.3"
	 style="enable-background:new 0 0 4082.8 1401.3;" xml:space="preserve">
<style type="text/css">
	.st0{fill:#84CC16;}
	.st1{fill:none;}
	.st2{font-family:'Moderustic-ExtraBold';}
	.st3{font-size:847.2026px;}
	.st4{fill:#1E40AF;}
</style>
<sodipodi:namedview  bordercolor="#000000" borderopacity="0.25" id="namedview5" inkscape:current-layer="svg5" inkscape:cx="785.27991" inkscape:cy="1966.644" inkscape:deskcolor="#d1d1d1" inkscape:pagecheckerboard="0" inkscape:pageopacity="0.0" inkscape:showpageshadow="2" inkscape:window-height="1009" inkscape:window-maximized="1" inkscape:window-width="1920" inkscape:window-x="-8" inkscape:window-y="-8" inkscape:zoom="0.14517116" pagecolor="#ffffff" showgrid="false">
	</sodipodi:namedview>
<g>
	<g id="Camada_1" transform="matrix(15.555638,0,0,15.555638,-34227.067,-28693.93)">
		<path id="path2" class="st0" d="M2267,1857.2c-1.3,2.4-2.5,4.9-4.2,7c-3.6,4.7-8.2,5.9-14.5,5.7c-6.9-0.2-13.7-2.7-20.4-4.5
			c-5.8-1.6-11.2-1.8-16.7,0.7c-0.8,0.4,0.1,0-2.7,1.2c-1.4,0.6-2.6,1-1.5-1.8c2.3-5.5,5-11.2,9.9-15.1c4.3-3.4,9.4-3.9,14.6-3.2
			c5.7,0.8,11.5,1.7,17.2,2.6c7.3,1.1,14.2-0.1,20.8-3.2c3-1.6,3.1-1.4,1.5,1.8 M2269,1849c-6.2,2.9-12.7,3.9-19.3,3
			c-5.9-0.8-11.8-1.7-17.7-2.7c-5.4-0.9-11-0.8-14.9,3.4c-3,3.3-4.1,5.5-6.5,9.4l-1.9,2.9c0.5-0.2,2.6-1.1,3.1-1.3
			c5.1-2.1,10.3-1.9,15.6-0.6c6.8,1.7,13.7,3.3,20.6,4.7c5.5,1.1,10.4-0.6,13.5-5.3C2264.4,1858.3,2266.5,1853.5,2269,1849
			L2269,1849z"/>
		<path id="path3" sodipodi:nodetypes="cccccccsccccccccccccccccccccccccccc" class="st0" d="M2223.7,1885.8
			c-0.8-0.1-1.4,0.4-1.5,1.4c-1,7.1-1.2,9.6-1.6,13.6c-1.5,12.3-1.6,17.5-2.8,23.7c-1,4.4-3.7,5.4-8.4,5c-3.4-0.3-6.2-2.6-6.2-6.3
			c0-5.1,0.6-10.2,1.1-15.3c0.8-7.7,2.6-18.7,2.6-24.1c0-2.6-0.2-5-0.1-7.5c0.1-1.8-0.1-1.4,1.3-2.3c3.8-2.3,7.3-2.3,11.4-1.5
			c4.6,1,9.2,2.3,13.8,3.2c7.1,1.4,12.5,1.7,19.4,0.2c3.9-0.9,4.3-1,5-1.3c2.6-1.1,2.2-1,1.7-0.3c-0.2,0.3-0.9,1.5-3.3,3.7
			c-2.2,1.9-2.4,1.9-5,3.6c-6.5,4-14.3,5.7-21.5,4.9C2227.7,1886.3,2225.8,1886.1,2223.7,1885.8L2223.7,1885.8z M2251,1877.6
			c0.1-0.1,0-0.3-0.2-0.3c-0.6,0.1-1.3,0.2-1.9,0.3c-6.1,1.1-12.2,1.2-18.3-0.2c-3.8-0.8-7.5-2-11.3-2.8c-3.2-0.7-6.4-1.1-9.5,0.5
			c-1.3,0.7-1.8,1.3-1.4,3c0.5,2,0.6,4.1,0.4,6.2c-0.6,6.5-1.3,13.1-2,19.6c-0.6,5.9-1.4,11.8-1.8,17.8c-0.2,3.5,1.4,5.4,4,5.9
			c3.3,0.5,6.4-1.7,7.2-4.9c2.9-12.2,4.8-24.5,4-37.1c-0.1-1.6,0.3-2.1,2.1-1.9c4.8,0.6,9.7,1.1,14.6,1.2
			C2242.7,1884.8,2247.1,1881.7,2251,1877.6L2251,1877.6z"/>
	</g>
	<g id="Camada_2" transform="matrix(15.555638,0,0,15.555638,-34227.892,-28699.112)">
		<path id="path5" class="st0" d="M2208,1865.8l5.9-10.3l5.7-5.6l8.6-1.9l12,1.7l7.3,1.3l10,0.2l7.3-1.3l5.7-2.1l-3.9,7.9l-6.1,9.9
			l-4.5,2.9l-7.8,0.5l-13-3.1l-6.7-1.3l-4.3-1.5l-3.7-0.1l-5.3,0.8c0,0-4.2,1.5-4.5,1.7s-2.5,0.6-2.5,0.6L2208,1865.8z"/>
		<polygon id="polygon5" class="st0" points="2240.8,1885.6 2232.5,1886 2224.4,1884.8 2220.4,1885.1 2220.8,1889.4 2220.6,1896.3 
			2220.2,1904.2 2218.1,1916.6 2215.9,1924.7 2214.2,1928.3 2208.9,1928.6 2204.7,1926.3 2203.9,1921 2205.2,1907.9 2207,1892.4 
			2207.8,1882.2 2207,1876.2 2211.7,1873.4 2218.9,1874 2227.8,1875.7 2236.6,1878 2245.5,1877.4 2254.6,1875.9 2249.8,1880.8 		"/>
	</g>
</g>
<g id="Camada_3" transform="matrix(15.555638,0,0,15.555638,-34227.067,-28693.93)">
</g>
<rect x="982.3" y="1152.2" class="st1" width="4.8" height="4.8"/>
<text transform="matrix(1 0 0 1 723.1227 1305.2395)"><tspan x="0" y="0" class="st0 st2 st3">low</tspan><tspan x="1467.3" y="0" class="st4 st2 st3">Pass</tspan></text>
</svg>
