<?xml version="1.0" encoding="utf-8"?>
<!-- Generator: Adobe Illustrator 27.5.0, SVG Export Plug-In . SVG Version: 6.00 Build 0)  -->
<svg version="1.1" xmlns="http://www.w3.org/2000/svg" xmlns:xlink="http://www.w3.org/1999/xlink" x="0px" y="0px"
	 viewBox="0 0 3710 3710" style="enable-background:new 0 0 3710 3710;" xml:space="preserve">
<g id="Background">
	<g>
		<g>
			<rect style="fill:#FFFFFF;" width="3710" height="3710"/>
		</g>
	</g>
</g>
<g id="Illustration">
	<g>
		<path style="fill:#F4F7FA;" d="M1859.474,474.789c-714.34-21.094-1333.11,497.229-1426.595,1177.333
			c-102.212,743.602,460.353,1412.664,1152.567,1519.824c860.998,133.29,1696.117-637.806,1621.131-1474.33
			C3150.084,1067.369,2585.615,496.231,1859.474,474.789z"/>
		<g>
			<g>
				<defs>
					<path id="SVGID_1_" d="M1919.163,2431.514c-142.705,7.888-414.702-562.382-224.665-865.814
						c79.298-126.617,198.977-142.787,249.587-304.022c45.159-143.871-30.172-194.577-6.505-354.82
						c33.279-225.319,233.101-469.578,417.145-450.844c92.341,9.4,195.647,86.527,225.493,196.1
						c23.904,87.759-48.667,177.028-23.019,194.803c21.065,14.599,63.798-44.869,101.397-33.785
						c55.453,16.347,93.727,184.377,43.602,325.321c-85.811,241.286-376.114,249.73-387.974,423.624
						c-7.56,110.842,107.797,145.374,88.796,259.569c-16.719,100.473-113.643,119.573-237.695,243.95
						C1971.006,2260.425,1995.669,2427.285,1919.163,2431.514z"/>
				</defs>
				
					<linearGradient id="SVGID_00000090290736333051578370000006446635703757102521_" gradientUnits="userSpaceOnUse" x1="2426.1672" y1="729.902" x2="1775.1241" y2="2413.1646">
					<stop  offset="0" style="stop-color:#FF9085"/>
					<stop  offset="1" style="stop-color:#FB6FBB"/>
				</linearGradient>
				
					<use xlink:href="#SVGID_1_"  style="overflow:visible;fill:url(#SVGID_00000090290736333051578370000006446635703757102521_);"/>
				<clipPath id="SVGID_00000166653293839780420120000003027015947879904422_">
					<use xlink:href="#SVGID_1_"  style="overflow:visible;"/>
				</clipPath>
				<g style="opacity:0.5;clip-path:url(#SVGID_00000166653293839780420120000003027015947879904422_);">
					<path style="fill:#FFFFFF;" d="M1955.31,2556.866c-2.871,0.839-6.079-0.198-7.871-2.793c-1.577-2.277-1.646-5.15-0.424-7.433
						c0.044-4.315-2.823-18.286-6.106-34.314c-18.488-90.174-67.591-329.706-18.802-710.862
						c61.362-479.366,252.656-1002.234,568.571-1554.084c1.961-3.42,6.325-4.605,9.744-2.649c3.423,1.959,4.606,6.322,2.649,9.744
						c-339.416,592.898-710.036,1465.397-548.174,2254.986c7.322,35.72,8.642,42.156,2.473,46.424
						C1956.723,2556.33,1956.026,2556.657,1955.31,2556.866z"/>
					<path style="fill:#FFFFFF;" d="M2052.627,1293.348c-3.621,1.057-7.474-0.897-8.733-4.499c-1.301-3.722,0.659-7.793,4.383-9.095
						c306.358-107.131,488.04-216.855,586.508-290.035c106.619-79.242,141.286-133.853,141.625-134.395
						c2.071-3.341,6.473-4.372,9.829-2.296c3.345,2.077,4.38,6.469,2.308,9.818c-1.414,2.283-35.819,56.796-144.071,137.461
						c-99.313,74.003-282.543,184.893-591.485,292.925C2052.87,1293.274,2052.747,1293.313,2052.627,1293.348z"/>
					<path style="fill:#FFFFFF;" d="M2163.785,948.864c-1.412,0.413-2.961,0.395-4.45-0.151
						c-83.376-30.521-140.856-133.882-170.84-307.213c-22.104-127.762-20.256-248.37-20.233-249.574
						c0.067-3.948,3.32-7.087,7.264-7.013c3.942,0.069,7.082,3.321,7.009,7.265c-0.08,4.735-6.136,474.362,181.709,543.127
						c3.7,1.354,5.606,5.456,4.251,9.158C2167.683,946.678,2165.89,948.249,2163.785,948.864z"/>
					<path style="fill:#FFFFFF;" d="M1921.658,1894.469c-1.995,0.582-4.229,0.293-6.069-0.984
						c-115.377-79.924-171.146-219.576-197.616-322.656c-28.563-111.23-30.092-205.087-30.104-206.022
						c-0.05-3.94,3.101-7.177,7.044-7.23c3.943-0.053,7.181,3.101,7.233,7.045c0.015,0.92,1.546,93.343,29.739,202.97
						c25.874,100.617,80.161,236.795,191.833,314.156c3.242,2.245,4.05,6.692,1.804,9.934
						C1924.554,1893.08,1923.174,1894.026,1921.658,1894.469z"/>
				</g>
			</g>
		</g>
		<g>
			
				<linearGradient id="SVGID_00000061444259003388649800000006530072304057753496_" gradientUnits="userSpaceOnUse" x1="1794.5299" y1="1860.3716" x2="1180.4252" y2="3067.8801" gradientTransform="matrix(0.976 -0.2177 0.2177 0.976 184.3043 451.4541)">
				<stop  offset="0" style="stop-color:#FFC444"/>
				<stop  offset="0.9964" style="stop-color:#F36F56"/>
			</linearGradient>
			<path style="fill:url(#SVGID_00000061444259003388649800000006530072304057753496_);" d="M1875.83,2747.219
				c-46.688-227.778-40.173-404.289-26.553-519.444c10.692-90.392,34.485-216.724,98.791-232.603
				c30.816-7.609,48.389,15.714,80.555,6.284c60.736-17.806,59.177-118.868,97.509-192.38
				c65.574-125.753,276.663-226.074,427.823-151.721c182.026,89.536,201.375,395.089,103.491,489.25
				c-58,55.793-161.772,41.804-167.417,82.381c-5.68,40.836,98.322,62.969,105.614,128.442
				c7.549,67.778-94.425,129.202-100.61,132.838c-123.587,72.657-220.806-2.492-356.426,31.041
				C2065.037,2539.498,1969.164,2592.391,1875.83,2747.219z"/>
			<g>
				<defs>
					<path id="SVGID_00000128474554538337834360000014040185082369717888_" d="M1875.83,2747.219
						c-46.688-227.778-40.173-404.289-26.553-519.444c10.692-90.392,34.485-216.724,98.791-232.603
						c30.816-7.609,48.389,15.714,80.555,6.284c60.736-17.806,59.177-118.868,97.509-192.38
						c65.574-125.753,276.663-226.074,427.823-151.721c182.026,89.536,201.375,395.089,103.491,489.25
						c-58,55.793-161.772,41.804-167.417,82.381c-5.68,40.836,98.322,62.969,105.614,128.442
						c7.549,67.778-94.425,129.202-100.61,132.838c-123.587,72.657-220.806-2.492-356.426,31.041
						C2065.037,2539.498,1969.164,2592.391,1875.83,2747.219z"/>
				</defs>
				
					<linearGradient id="SVGID_00000077288975333265502980000010134645032320020927_" gradientUnits="userSpaceOnUse" x1="2547.4221" y1="1620.0911" x2="1933.3213" y2="2827.592">
					<stop  offset="0" style="stop-color:#FFC444"/>
					<stop  offset="0.9964" style="stop-color:#F36F56"/>
				</linearGradient>
				
					<use xlink:href="#SVGID_00000128474554538337834360000014040185082369717888_"  style="overflow:visible;fill:url(#SVGID_00000077288975333265502980000010134645032320020927_);"/>
				<clipPath id="SVGID_00000072969443566609417860000005536245616153917623_">
					<use xlink:href="#SVGID_00000128474554538337834360000014040185082369717888_"  style="overflow:visible;"/>
				</clipPath>
				<g style="opacity:0.8;clip-path:url(#SVGID_00000072969443566609417860000005536245616153917623_);">
					<g>
						<path style="fill:#FFFFFF;" d="M1850.298,2931.45l3.538,0.131c20.252-545.076,361.705-1019.07,913.385-1267.933l-1.456-3.23
							c-261.457,117.944-483.978,293.397-643.507,507.391C1954.542,2392.782,1860.5,2656.845,1850.298,2931.45z"/>
						<path style="fill:#FFFFFF;" d="M1683.305,2140.81c99.862,110.838,196.906,327.173,216.323,482.246l3.513-0.441
							c-19.494-155.682-116.932-372.881-217.204-484.175L1683.305,2140.81z"/>
						<path style="fill:#FFFFFF;" d="M1855.498,2824.494l3.365,1.106c25.396-77.164,88.828-138.525,188.531-182.377
							c73.106-32.156,163.65-54.323,269.122-65.887l-0.388-3.52c-105.828,11.604-196.724,33.865-270.159,66.165
							C1945.306,2684.254,1881.223,2746.333,1855.498,2824.494z"/>
						<path style="fill:#FFFFFF;" d="M2146.081,2138.314l3.303,1.279c55.352-142.989,17.743-299.776-23.552-406.129l-3.303,1.283
							C2163.598,1840.515,2201.023,1996.386,2146.081,2138.314z"/>
						<path style="fill:#FFFFFF;" d="M2392.244,1888.12l1.664,3.127c152.514-81.092,331.448-51.825,424.534-27.162l0.909-3.424
							C2725.761,1835.865,2545.826,1806.46,2392.244,1888.12z"/>
					</g>
				</g>
			</g>
		</g>
		<g>
			<g>
				<g>
					
						<linearGradient id="SVGID_00000124859055073482261310000014463148702471135663_" gradientUnits="userSpaceOnUse" x1="1496.7101" y1="1877.3317" x2="1068.052" y2="1924.0941">
						<stop  offset="0" style="stop-color:#444B8C"/>
						<stop  offset="0.9964" style="stop-color:#26264F"/>
					</linearGradient>
					<path style="fill:url(#SVGID_00000124859055073482261310000014463148702471135663_);" d="M2008.55,797.345l261.146,2170.594
						c3.915,32.545-18.516,61.719-49.938,64.837L1132.051,3152.19c-66.632,4.145-103.115-29.898-107.227-64.505L750.651,779.982
						c-4.089-34.414,28.602-65.58,95.517-65.581l1097.603,23.118C1975.545,738.05,2004.654,764.97,2008.55,797.345z"/>
					
						<linearGradient id="SVGID_00000116209945028716380690000007826734806737452712_" gradientUnits="userSpaceOnUse" x1="1874.3983" y1="796.8135" x2="814.451" y2="4405.3193">
						<stop  offset="0" style="stop-color:#444B8C"/>
						<stop  offset="0.9964" style="stop-color:#26264F"/>
					</linearGradient>
					<path style="fill:url(#SVGID_00000116209945028716380690000007826734806737452712_);" d="M2057.503,793.609l262.58,2181.452
						c3.937,32.709-18.57,62.034-50.108,65.174l-1127.647,112.269c-35.354,3.52-67.753-22.055-71.888-56.841L794.728,776.034
						c-4.111-34.591,21.856-62.396,57.597-61.794l1140.146,19.237C2024.364,734.015,2053.587,761.073,2057.503,793.609z"/>
					
						<linearGradient id="SVGID_00000044148005846903177540000018297141329234885296_" gradientUnits="userSpaceOnUse" x1="779.7754" y1="1813.2767" x2="1845.4445" y2="2037.2716">
						<stop  offset="0.0036" style="stop-color:#E38DDD"/>
						<stop  offset="1" style="stop-color:#9571F6"/>
					</linearGradient>
					<path style="fill:url(#SVGID_00000044148005846903177540000018297141329234885296_);" d="M2036.107,913.936l243.377,2022.638
						c3.677,30.559-17.401,57.905-46.922,60.775l-1060.513,103.09c-32.865,3.195-62.983-20.678-66.833-53.057l-254.799-2142.8
						c-3.831-32.211,20.277-58.274,53.474-57.92l1071.397,11.409C2005.116,858.388,2032.447,883.526,2036.107,913.936z"/>
					
						<linearGradient id="SVGID_00000058561596967562307280000006501129662610489995_" gradientUnits="userSpaceOnUse" x1="1477.2112" y1="707.9331" x2="231.4857" y2="4081.7725">
						<stop  offset="0" style="stop-color:#311944"/>
						<stop  offset="1" style="stop-color:#893976"/>
					</linearGradient>
					<path style="fill:url(#SVGID_00000058561596967562307280000006501129662610489995_);" d="M1467.403,792.11
						c1.39,11.613-6.944,20.908-18.627,20.761c-11.696-0.147-22.314-9.7-23.706-21.336c-1.393-11.636,6.973-20.93,18.67-20.759
						C1455.425,770.946,1466.014,780.498,1467.403,792.11z"/>
					<g style="opacity:0.5;">
						<path style="fill:#FFFFFF;" d="M1852.753,2271.658c-217.11-401.406-541.44-521.558-639.089-935.251
							c-52.783-223.618-16.82-437.649,43.749-615.332l-405.09-6.836c-35.74-0.602-61.707,27.202-57.595,61.794l275.712,2319.63
							c4.135,34.785,36.533,60.361,71.888,56.841l886.44-88.254C2035.324,2704.574,1949.532,2450.587,1852.753,2271.658z"/>
					</g>
				</g>
			</g>
			<g style="opacity:0.8;">
				<g>
					<path style="fill:#FFFFFF;" d="M1911.836,1995.011c-1.175-11.557-10.51-21.295-20.833-21.02l-606.87,16.177
						c-10.866,0.29-18.66,10.755-17.404,22.625l6.992,66.181c1.254,11.858,11.074,21.243,21.928,20.905l606.172-18.898
						c10.311-0.321,17.722-9.987,16.548-21.533L1911.836,1995.011z"/>
					<path style="fill:#FFFFFF;" d="M1866.745,2136.859c-1.18-11.567-10.496-20.758-20.857-20.421l-481.331,15.688
						c-10.793,0.352-18.552,10.307-17.307,22.125l33.338,316.551c1.24,11.768,10.96,20.922,21.711,20.412l479.464-22.755
						c10.321-0.49,17.746-10.252,16.571-21.771L1866.745,2136.859z M1726.351,2377.469c1.534,14.881-8.138,26.481-21.567,27.078
						l-135.812,6.035c-13.597,0.604-25.868-10.107-27.431-25.102l-15.754-151.697c-1.567-15.026,8.198-28.422,21.824-28.911
						l136.105-4.881c13.458-0.483,25.633,12.027,27.17,26.938L1726.351,2377.469z"/>
					<g>
						<path style="fill:#FFFFFF;" d="M1610.193,2380.841c-4.861,0.21-9.935-1.627-14.073-5.562l-39.8-37.868
							c-8.307-7.906-9.694-21.22-3.097-29.735c6.597-8.506,18.663-8.986,26.955-1.082l24.757,23.615l61.543-79.628
							c6.537-8.452,18.492-8.902,26.705-1.013c8.206,7.888,9.571,21.123,3.053,29.577l-73.261,94.979
							C1619.695,2378.374,1615.053,2380.631,1610.193,2380.841z"/>
					</g>
				</g>
				<path style="fill:#FFFFFF;" d="M1894.714,1340.974h-750.136c-51.116,0-90.238,41.37-84.622,94.008l21.676,202.924
					c5.598,52.461,53.626,95.391,104.522,94.576l746.964-11.959c47.638-0.763,82.555-42.707,77.467-93.195l-19.705-195.699
					C1985.775,1380.982,1942.55,1340.974,1894.714,1340.974z"/>
			</g>
		</g>
		<g>
			
				<linearGradient id="SVGID_00000018217350569814065760000007619366314089111216_" gradientUnits="userSpaceOnUse" x1="2856.4087" y1="2266.3887" x2="2809.4373" y2="1984.5593">
				<stop  offset="0" style="stop-color:#FF9085"/>
				<stop  offset="1" style="stop-color:#FB6FBB"/>
			</linearGradient>
			<path style="fill:url(#SVGID_00000018217350569814065760000007619366314089111216_);" d="M2759.426,1701.294
				c0,0-20.751,154.499,142.045,263.429l-173.229,41.322c0,0-55.445-103.672-15.304-275.397L2759.426,1701.294z"/>
			
				<linearGradient id="SVGID_00000111872394156506321160000014217633638589479586_" gradientUnits="userSpaceOnUse" x1="2746.5149" y1="1683.6195" x2="2753.6912" y2="1788.001">
				<stop  offset="0.0036" style="stop-color:#F36F56"/>
				<stop  offset="1" style="stop-color:#FFC444"/>
			</linearGradient>
			<path style="fill:url(#SVGID_00000111872394156506321160000014217633638589479586_);" d="M2728.942,1730.647
				c0,0-9.335-23.045-7.829-33.42c1.506-10.375,26.203-24.22,43.036-38.517c16.833-14.298-0.631,14.379-4.545,20.903
				c-3.914,6.524-17.647,16.309-15.674,38.491L2728.942,1730.647z"/>
			<g>
				<g>
					
						<rect x="1958.637" y="1056.071" transform="matrix(0.5989 -0.8008 0.8008 0.5989 -175.7673 2551.6763)" style="fill:#FFFFFF;" width="1001.773" height="790.481"/>
					<g>
						<g>
							<g>
								<path style="fill:#D8DEE8;" d="M2459.835,1127.164l-111.475-83.373l83.373-111.475l111.475,83.373L2459.835,1127.164z
									 M2383.154,1038.772l71.663,53.597l53.597-71.663l-71.663-53.597L2383.154,1038.772z"/>
							</g>
							
								<rect x="2702.608" y="1010.462" transform="matrix(0.5989 -0.8008 0.8008 0.5989 98.1134 2689.1223)" style="fill:#D8DEE8;" width="62.145" height="472.3"/>
						</g>
						<g>
							<g>
								<path style="fill:#D8DEE8;" d="M2328.82,1302.339l-111.475-83.373l83.373-111.475l111.475,83.373L2328.82,1302.339z
									 M2252.139,1213.948l71.663,53.597l53.597-71.663l-71.663-53.597L2252.139,1213.948z"/>
							</g>
							
								<rect x="2571.593" y="1185.637" transform="matrix(0.5989 -0.8008 0.8008 0.5989 -94.7139 2654.4636)" style="fill:#D8DEE8;" width="62.145" height="472.3"/>
						</g>
						<g>
							<g>
								<path style="fill:#D8DEE8;" d="M2197.805,1477.514l-111.475-83.373l83.373-111.475l111.475,83.373L2197.805,1477.514z
									 M2121.124,1389.123l71.663,53.597l53.597-71.663l-71.663-53.597L2121.124,1389.123z"/>
							</g>
							
								<rect x="2440.578" y="1360.813" transform="matrix(0.5989 -0.8008 0.8008 0.5989 -287.5415 2619.804)" style="fill:#D8DEE8;" width="62.145" height="472.3"/>
						</g>
						<g>
							<g>
								<path style="fill:#D8DEE8;" d="M2066.79,1652.69l-111.475-83.373l83.373-111.475l111.475,83.373L2066.79,1652.69z
									 M1990.109,1564.298l71.662,53.597l53.597-71.662l-71.663-53.597L1990.109,1564.298z"/>
							</g>
							
								<rect x="2309.563" y="1535.988" transform="matrix(0.5989 -0.8008 0.8008 0.5989 -480.3688 2585.145)" style="fill:#D8DEE8;" width="62.145" height="472.3"/>
						</g>
					</g>
				</g>
				<g>
					
						<linearGradient id="SVGID_00000076603416698470173600000016597849249415115955_" gradientUnits="userSpaceOnUse" x1="3769.9563" y1="-524.5939" x2="3921.594" y2="-524.5939" gradientTransform="matrix(0.8008 0.5989 -0.5989 0.8008 -944.7401 -857.882)">
						<stop  offset="0" style="stop-color:#AA80F9"/>
						<stop  offset="0.9964" style="stop-color:#6165D7"/>
					</linearGradient>
					<path style="fill:url(#SVGID_00000076603416698470173600000016597849249415115955_);" d="M2379.202,1057.546
						c-0.054-0.04-0.106-0.079-0.159-0.119c-2.878-2.152-4.782-5.271-4.991-8.86l-2.51-41.261c-0.4-6.853,4.785-12.67,11.637-13.071
						c6.851-0.401,12.709,4.862,13.11,11.715l1.573,27.154l132.743-26.367c6.732-1.339,13.274,3.039,14.609,9.773
						c1.338,6.733-3.038,13.276-9.771,14.614l-146.562,28.908C2385.422,1060.719,2382.021,1059.654,2379.202,1057.546z"/>
				</g>
				<g>
					
						<linearGradient id="SVGID_00000156549328556128078580000008255779263467109276_" gradientUnits="userSpaceOnUse" x1="3769.9475" y1="-79.6293" x2="3921.5852" y2="-79.6293" gradientTransform="matrix(0.8008 0.5989 -0.5989 0.8008 -944.7401 -857.882)">
						<stop  offset="0" style="stop-color:#AA80F9"/>
						<stop  offset="0.9964" style="stop-color:#6165D7"/>
					</linearGradient>
					<path style="fill:url(#SVGID_00000156549328556128078580000008255779263467109276_);" d="M2112.705,1413.868
						c-0.053-0.04-0.106-0.079-0.159-0.119c-2.878-2.153-4.781-5.272-4.991-8.86l-2.51-41.261c-0.4-6.853,4.785-12.67,11.637-13.071
						c6.851-0.401,12.709,4.862,13.11,11.715l1.573,27.154l132.743-26.367c6.732-1.339,13.274,3.039,14.609,9.773
						c1.338,6.733-3.038,13.276-9.771,14.614l-146.562,28.908C2118.926,1417.041,2115.525,1415.977,2112.705,1413.868z"/>
				</g>
				<g>
					
						<linearGradient id="SVGID_00000067919725584875376620000015253216416693212807_" gradientUnits="userSpaceOnUse" x1="3769.9434" y1="136.6384" x2="3921.5811" y2="136.6384" gradientTransform="matrix(0.8008 0.5989 -0.5989 0.8008 -944.7401 -857.882)">
						<stop  offset="0" style="stop-color:#AA80F9"/>
						<stop  offset="0.9964" style="stop-color:#6165D7"/>
					</linearGradient>
					<path style="fill:url(#SVGID_00000067919725584875376620000015253216416693212807_);" d="M1983.179,1587.052
						c-0.053-0.04-0.106-0.079-0.159-0.119c-2.878-2.153-4.782-5.272-4.991-8.86l-2.51-41.261c-0.4-6.853,4.785-12.67,11.637-13.071
						c6.851-0.401,12.709,4.861,13.11,11.715l1.573,27.154l132.743-26.367c6.733-1.339,13.273,3.04,14.609,9.773
						c1.338,6.733-3.038,13.276-9.771,14.614l-146.561,28.908C1989.4,1590.226,1985.999,1589.161,1983.179,1587.052z"/>
				</g>
				<g>
					<g>
						
							<linearGradient id="SVGID_00000122679742131629480330000016642379222018309014_" gradientUnits="userSpaceOnUse" x1="3784.8682" y1="-299.0002" x2="3911.6443" y2="-299.0002" gradientTransform="matrix(0.8008 0.5989 -0.5989 0.8008 -944.7401 -857.882)">
							<stop  offset="0" style="stop-color:#FF9085"/>
							<stop  offset="1" style="stop-color:#FB6FBB"/>
						</linearGradient>
						<path style="fill:url(#SVGID_00000122679742131629480330000016642379222018309014_);" d="M2318.858,1288.681
							c-2.548-1.905-4.367-4.782-4.858-8.179l-20.575-142.657c-0.98-6.794,3.734-13.096,10.528-14.076
							c6.794-0.978,13.095,3.734,14.076,10.528l20.574,142.657c0.98,6.794-3.734,13.096-10.528,14.076
							C2324.679,1291.519,2321.406,1290.586,2318.858,1288.681z"/>
					</g>
					<g>
						
							<linearGradient id="SVGID_00000153706906770141062320000006960314436274683278_" gradientUnits="userSpaceOnUse" x1="-4349.4131" y1="-299.242" x2="-4222.6328" y2="-299.242" gradientTransform="matrix(-0.8008 -0.5989 -0.5989 0.8008 -1295.4484 -1119.8668)">
							<stop  offset="0" style="stop-color:#FF9085"/>
							<stop  offset="1" style="stop-color:#FB6FBB"/>
						</linearGradient>
						<path style="fill:url(#SVGID_00000153706906770141062320000006960314436274683278_);" d="M2237.242,1227.64
							c-2.548-1.905-4.367-4.782-4.858-8.179c-0.98-6.794,3.734-13.096,10.528-14.076l142.657-20.575
							c6.794-0.978,13.095,3.734,14.076,10.528c0.98,6.794-3.734,13.096-10.528,14.076l-142.657,20.575
							C2243.064,1230.478,2239.79,1229.545,2237.242,1227.64z"/>
					</g>
				</g>
			</g>
			
				<linearGradient id="SVGID_00000044143582356467108320000011948749791148099260_" gradientUnits="userSpaceOnUse" x1="2859.3567" y1="1773.6493" x2="2850.5481" y2="1667.9434" gradientTransform="matrix(0.9986 0.0537 -0.0537 0.9986 185.5795 -55.8024)">
				<stop  offset="0.0036" style="stop-color:#26264F"/>
				<stop  offset="1" style="stop-color:#444B8C"/>
			</linearGradient>
			<path style="fill:url(#SVGID_00000044143582356467108320000011948749791148099260_);" d="M2920.393,1852.942
				c-7.32-14.416-10.339-14.332-12.137-21.941c-4.097-17.341,6.48-39.366,15.45-39.672c5.783-0.197,6.261,8.792,18.502,22.804
				c14.996,17.163,24.098,14.911,32.922,29.81c2.065,3.485,11.355,19.173,5.642,30.881c-7.291,14.943-36.04,17.309-48.056,5.783
				C2927.016,1875.14,2929.41,1870.702,2920.393,1852.942z"/>
			
				<linearGradient id="SVGID_00000008146832883193835410000006389716647929841844_" gradientUnits="userSpaceOnUse" x1="2829.2651" y1="1590.0946" x2="2839.0508" y2="1952.1514" gradientTransform="matrix(0.9986 0.0537 -0.0537 0.9986 185.5795 -55.8024)">
				<stop  offset="0.0036" style="stop-color:#F36F56"/>
				<stop  offset="1" style="stop-color:#FFC444"/>
			</linearGradient>
			<path style="fill:url(#SVGID_00000008146832883193835410000006389716647929841844_);" d="M2947.821,1866.345
				c0,0-5.967,31.845-1.72,57.737c3.84,23.401,47.19,47.711,55.498,54.682c8.308,6.97-22.037,14.535-49.875,10.891
				c-27.837-3.642-104.056-28.031-115.638-41.625c-11.583-13.592,13.486-6.896,34.569-9.469
				c21.083-2.574,41.21-37.907,41.824-55.941C2913.094,1864.585,2947.821,1866.345,2947.821,1866.345z"/>
			<g>
				
					<linearGradient id="SVGID_00000092424849662116043570000012344535783945821631_" gradientUnits="userSpaceOnUse" x1="-280.0736" y1="1391.1525" x2="-196.9947" y2="1478.722" gradientTransform="matrix(-0.966 -0.2584 -0.2584 0.966 3092.8628 402.9503)">
					<stop  offset="0.0036" style="stop-color:#F36F56"/>
					<stop  offset="1" style="stop-color:#FFC444"/>
				</linearGradient>
				<path style="fill:url(#SVGID_00000092424849662116043570000012344535783945821631_);" d="M2934.133,1888.947
					c0,0-18.335,8.052-34.576-4.935c-14.542-11.629,7.08-47.349,21.872-47.805c4.935-0.152,12.137,3.383,16.39,8.556
					c2.512,3.055,2.662,5.091,6.863,10.003c3.874,4.53,5.578,4.938,6.166,7.139c0.738,2.75-0.528,7.349-10.485,15.255
					c4.961-0.915,9.239,0.393,10.896,3.285c0.264,0.461,0.813,1.904,0.649,3.392
					C2951.312,1889.227,2944.27,1891.723,2934.133,1888.947z"/>
			</g>
			
				<linearGradient id="SVGID_00000078744579869395366740000012797842987175870092_" gradientUnits="userSpaceOnUse" x1="2455.5024" y1="1780.9712" x2="2475.7263" y2="1845.557">
				<stop  offset="0.0036" style="stop-color:#F36F56"/>
				<stop  offset="1" style="stop-color:#FFC444"/>
			</linearGradient>
			<path style="fill:url(#SVGID_00000078744579869395366740000012797842987175870092_);" d="M2470.41,1779.348
				c0,0-12.906-1.798-8.882-26.447c3.154-19.321,0.765-25.819-3.795-22.394c-4.561,3.425-5.205,14.59-5.205,14.59
				s-16.636-14.189-23.486-32.782c-6.85-18.593-11.254-2.936-12.722,6.361c-1.468,9.296,9.786,38.164,16.147,43.546
				c6.36,5.382,15.657,29.103,15.657,29.103L2470.41,1779.348z"/>
			
				<linearGradient id="SVGID_00000176041109036400364010000014145892281861878664_" gradientUnits="userSpaceOnUse" x1="-1.744" y1="3262.2849" x2="-66.6275" y2="3048.3442" gradientTransform="matrix(-0.9999 0.0138 0.0138 0.9999 2839.1826 -14.86)">
				<stop  offset="0" style="stop-color:#444B8C"/>
				<stop  offset="0.9964" style="stop-color:#26264F"/>
			</linearGradient>
			<path style="fill:url(#SVGID_00000176041109036400364010000014145892281861878664_);" d="M2947.739,3142.526
				c6.64,13.544,4.777,19.366,3.124,21.926c-4.846,7.513-16.513,0.418-46.971,4.025c-3.573,0.425-10.389,1.345-18.898-0.659
				c-7.288-1.718-15.881-5.597-15.514-7.549c0.135-0.71,1.429-0.995,1.92-1.1c8.452-1.802,61.364-18.04,61.364-18.04
				L2947.739,3142.526z"/>
			
				<linearGradient id="SVGID_00000058578582675304034510000007767922655233044127_" gradientUnits="userSpaceOnUse" x1="-57.6765" y1="3220.6233" x2="-57.6765" y2="2876.9258" gradientTransform="matrix(-0.9999 0.0138 0.0138 0.9999 2839.1826 -14.86)">
				<stop  offset="0" style="stop-color:#FFC444"/>
				<stop  offset="0.9964" style="stop-color:#F36F56"/>
			</linearGradient>
			<path style="fill:url(#SVGID_00000058578582675304034510000007767922655233044127_);" d="M2951.799,3112.751l-4.725,30.279
				c0,0-13.004,9.193-16.423-1.967c-2.459-8.028-2.39-29.665-2.39-29.665L2951.799,3112.751z"/>
			
				<linearGradient id="SVGID_00000169557466473863999450000016422086866167992448_" gradientUnits="userSpaceOnUse" x1="63.4093" y1="3207.7898" x2="63.4093" y2="2864.0759" gradientTransform="matrix(-0.9999 0.0138 0.0138 0.9999 2839.1826 -14.86)">
				<stop  offset="0" style="stop-color:#FFC444"/>
				<stop  offset="0.9964" style="stop-color:#F36F56"/>
			</linearGradient>
			<polygon style="fill:url(#SVGID_00000169557466473863999450000016422086866167992448_);" points="2803.521,3114.829 
				2816.288,3149.691 2834.843,3146.735 2830.541,3114.455 			"/>
			
				<linearGradient id="SVGID_00000177453592928558525750000007313725793119494533_" gradientUnits="userSpaceOnUse" x1="87.3068" y1="3220.783" x2="22.4235" y2="3006.843" gradientTransform="matrix(-0.9999 0.0138 0.0138 0.9999 2839.1826 -14.86)">
				<stop  offset="0" style="stop-color:#444B8C"/>
				<stop  offset="0.9964" style="stop-color:#26264F"/>
			</linearGradient>
			<path style="fill:url(#SVGID_00000177453592928558525750000007313725793119494533_);" d="M2822.067,3168.892
				c8.981-10.657,16.999-9.69,18.617-17.014c1.272-5.754-2.252-12.811-7.568-15.493c-7.473-3.766-16.523,2.117-18.568,3.445
				c-13.89,9.03-10.107,23.151-23.205,29.274c-2.636,1.233-6.813,2.54-11.216,6.666c-1.869,1.752-6.501,6.092-5.416,9.081
				c1.255,3.457,9.512,3.337,17.363,3.223c9.421-0.135,14.131-0.2,18.662-3.029
				C2817.015,3181.127,2815.135,3177.116,2822.067,3168.892z"/>
			
				<linearGradient id="SVGID_00000004506001644755746850000015303721537383900344_" gradientUnits="userSpaceOnUse" x1="-87.372" y1="2478.98" x2="-118.9365" y2="3189.1836" gradientTransform="matrix(-0.9999 0.0138 0.0138 0.9999 2839.1826 -14.86)">
				<stop  offset="0" style="stop-color:#311944"/>
				<stop  offset="1" style="stop-color:#893976"/>
			</linearGradient>
			<path style="fill:url(#SVGID_00000004506001644755746850000015303721537383900344_);" d="M3051.077,2388.516
				c-3.433,70.426-13.516,130.546-24.986,179.556c-12.34,52.722-19.062,61.734-23.343,98.281
				c-9.312,79.531,16.127,91.489,18.911,181.668c3.075,99.576-25.07,178.062-36.113,207.994
				c-9.655,26.167-19.626,47.252-27.099,61.885c-9.29,7.755-23.168,4.403-37.804,1.099c-3.483-90.333-8.412-175.38-11.894-265.712
				c-14.554-136.093-29.109-272.18-43.664-408.271C2927.082,2426.18,2989.079,2407.351,3051.077,2388.516z"/>
			
				<linearGradient id="SVGID_00000162335876258079135910000001571632667852656815_" gradientUnits="userSpaceOnUse" x1="-87.372" y1="2478.98" x2="-118.9365" y2="3189.1833" gradientTransform="matrix(-0.9999 0.0138 0.0138 0.9999 2839.1826 -14.86)">
				<stop  offset="0" style="stop-color:#311944"/>
				<stop  offset="1" style="stop-color:#893976"/>
			</linearGradient>
			<path style="opacity:0.3;fill:url(#SVGID_00000162335876258079135910000001571632667852656815_);" d="M2920.642,3118.998
				c-3.483-90.333-8.412-175.38-11.894-265.712c-14.554-136.093-29.109-272.18-43.664-408.271
				c61.998-18.835,123.995-37.665,185.993-56.499c-0.228,4.663-0.558,9.158-0.842,13.735
				c-87.984,73.157-106.164,132.217-106.19,172.765c-0.031,49.181,26.327,74.125,19.546,145.288
				c-4.848,50.881-20.361,59.531-21.341,105.519c-1.261,59.217,23.44,93.057,35.084,127.542
				c11.253,33.329,14.507,80.264-10.033,146.394c-3.183,6.816-6.183,12.91-8.855,18.141
				C2949.156,3125.653,2935.279,3122.305,2920.642,3118.998z"/>
			
				<linearGradient id="SVGID_00000142860242724600054110000007029790571894828222_" gradientUnits="userSpaceOnUse" x1="484.2579" y1="2772.6353" x2="-211.4435" y2="2741.012" gradientTransform="matrix(-0.9999 0.0138 0.0138 0.9999 2839.1826 -14.86)">
				<stop  offset="0" style="stop-color:#311944"/>
				<stop  offset="1" style="stop-color:#893976"/>
			</linearGradient>
			<path style="fill:url(#SVGID_00000142860242724600054110000007029790571894828222_);" d="M2945.907,2441.146
				c-55.791,68.32-87.613,132.191-105.973,176.938c-22.091,53.837-38.107,94.184-33.087,146.442
				c5.526,57.514,31.607,78.183,48.929,127.215c16.799,47.553,24.985,120.724-18.843,229.606
				c-11.029,3.819-22.058,7.638-33.086,11.453c-7.328-29.422-19.182-73.435-36.905-125.85
				c-35.122-103.867-70.13-172.218-79.597-193.448c-33.341-74.765-36.711-208.241,102.065-465.775
				C2841.575,2378.864,2893.741,2410.003,2945.907,2441.146z"/>
			
				<linearGradient id="SVGID_00000165928191593646862380000000302802597779354030_" gradientUnits="userSpaceOnUse" x1="2756.2131" y1="1968.3302" x2="2881.4702" y2="2620.7129">
				<stop  offset="0" style="stop-color:#FF9085"/>
				<stop  offset="1" style="stop-color:#FB6FBB"/>
			</linearGradient>
			<path style="fill:url(#SVGID_00000165928191593646862380000000302802597779354030_);" d="M2436.022,1785.951
				c14.681-10.283,29.362-20.562,44.043-30.844c17.864,109.81,58.469,152.906,92.957,171.759
				c83.2,45.477,157.456-35.565,316.708-2.492c43.885,9.113,120.378,26.089,162.793,88.607
				c11.149,16.433,15.116,28.876,33.63,146.763c23.665,150.692,24.507,176.992,21.17,209.438
				c-6.106,59.38-9.807,95.365-37.186,127.215c-72.702,84.574-227.227,40.967-246.6,35.229
				c-35.79-10.6-91.414-27.079-113.514-74.372c-10.399-22.251-9.294-42.594,6.688-123.969
				c31.658-161.197,35.702-171.629,26.866-189.281c-29.822-59.571-124.313-25.485-204.135-80.881
				C2492.767,2030.732,2440.16,1960.149,2436.022,1785.951z"/>
			
				<linearGradient id="SVGID_00000130636860768815242740000010535802887817694368_" gradientUnits="userSpaceOnUse" x1="2654.4556" y1="1987.8671" x2="2779.7126" y2="2640.2502">
				<stop  offset="0" style="stop-color:#FF9085"/>
				<stop  offset="1" style="stop-color:#FB6FBB"/>
			</linearGradient>
			<path style="opacity:0.3;fill:url(#SVGID_00000130636860768815242740000010535802887817694368_);" d="M2895.951,2510.096
				c-15.581-31.957,5.358-61.405-17.614-99.814c-29.276-48.952-81.951-32.332-101.771-68.5
				c-33.897-61.856,99.526-148.124,72.414-246.6c-12.944-47.018-58.142-81.05-95.9-93.943
				c-83.826-28.624-138.656,44.341-217.244,21.528c-18.627-5.409-40.005-16.612-61.628-39.861
				c19.112,40.32,42.848,64.682,65.232,80.217c79.823,55.396,174.314,21.311,204.135,80.881
				c8.836,17.652,4.793,28.084-26.866,189.281c-15.982,81.375-17.087,101.718-6.688,123.969
				c22.1,47.293,77.725,63.772,113.514,74.372c10.605,3.142,61.715,17.587,117.722,16.188
				C2916.271,2537.66,2902.824,2524.194,2895.951,2510.096z"/>
		</g>
		<g>
			<path style="fill:#9D3060;" d="M1171.996,840.055c0,168.477-135.758,314.129-303.74,325.358
				c-168.555,11.268-305.619-116.993-305.619-286.512s137.064-315.255,305.619-325.478
				C1036.239,543.234,1171.996,671.578,1171.996,840.055z"/>
			
				<linearGradient id="SVGID_00000114765655737896413850000010940185644891655071_" gradientUnits="userSpaceOnUse" x1="598.6954" y1="870.2713" x2="1208.0542" y2="870.2713">
				<stop  offset="0" style="stop-color:#FFC444"/>
				<stop  offset="0.9964" style="stop-color:#F36F56"/>
			</linearGradient>
			<path style="fill:url(#SVGID_00000114765655737896413850000010940185644891655071_);" d="M1208.054,850.847
				c0,168.477-135.758,314.129-303.74,325.358c-168.555,11.268-305.619-116.993-305.619-286.512s137.064-315.255,305.619-325.478
				C1072.297,554.027,1208.054,682.37,1208.054,850.847z"/>
			<path style="fill:#FFFFFF;" d="M893.583,1035.793c-13.212,0.864-25.503-5.282-32.342-16.263L746.386,835.098
				c-10.764-17.283-4.964-40.957,12.948-52.872c17.897-11.908,41.124-7.558,51.874,9.718l79.654,128.025l105.101-214.053
				c9.432-19.21,32.094-28.022,50.603-19.69c18.506,8.329,25.869,30.641,16.45,49.839l-135.821,276.842
				c-6.22,12.676-18.584,21.399-32.285,22.776C894.467,1035.727,894.025,1035.764,893.583,1035.793z"/>
		</g>
		<g>
			
				<linearGradient id="SVGID_00000149362113468596464480000008464069343647614901_" gradientUnits="userSpaceOnUse" x1="2696.1406" y1="3091.5813" x2="2713.9666" y2="3412.4509" gradientTransform="matrix(-1 0 0 1 3763.5703 0)">
				<stop  offset="0" style="stop-color:#444B8C"/>
				<stop  offset="0.9964" style="stop-color:#26264F"/>
			</linearGradient>
			<path style="fill:url(#SVGID_00000149362113468596464480000008464069343647614901_);" d="M1022.776,3205.677
				c0,0-2.229,17.738-0.733,23.68c1.497,5.943,53.068,10.237,70.574,8.171c17.505-2.067-10.427-19.947-21.581-23.303
				C1059.883,3210.869,1022.776,3205.677,1022.776,3205.677z"/>
			
				<linearGradient id="SVGID_00000082326137010897057290000014175057465562664884_" gradientUnits="userSpaceOnUse" x1="2714.834" y1="3194.4817" x2="2741.5271" y2="3194.4817" gradientTransform="matrix(-1 0 0 1 3763.5703 0)">
				<stop  offset="0" style="stop-color:#311944"/>
				<stop  offset="1" style="stop-color:#A03976"/>
			</linearGradient>
			<path style="fill:url(#SVGID_00000082326137010897057290000014175057465562664884_);" d="M1048.736,3176.088l-5.436,35.586
				c0,0-13.861,6.231-20.524,0.074l-0.733-37.25L1048.736,3176.088z"/>
			
				<linearGradient id="SVGID_00000064320670555670219410000015905258757262456482_" gradientUnits="userSpaceOnUse" x1="3018.7837" y1="3073.6611" x2="3036.6089" y2="3394.5198" gradientTransform="matrix(-1 0 0 1 3763.5703 0)">
				<stop  offset="0" style="stop-color:#444B8C"/>
				<stop  offset="0.9964" style="stop-color:#26264F"/>
			</linearGradient>
			<path style="fill:url(#SVGID_00000064320670555670219410000015905258757262456482_);" d="M758.013,3174.498
				c0,0,10.943,8.12,8.025,17.845c-2.916,9.724-28.449,48.69-46.647,59.749c-18.196,11.06-12.492-11.981-7.197-26.332
				c5.296-14.351,18.826-45.963,24.108-51.262C741.584,3169.2,758.013,3174.498,758.013,3174.498z"/>
			
				<linearGradient id="SVGID_00000054260897183078171240000009049104515243130812_" gradientUnits="userSpaceOnUse" x1="2985.874" y1="3178.0225" x2="3038.9607" y2="3178.0225" gradientTransform="matrix(-1 0 0 1 3763.5703 0)">
				<stop  offset="0" style="stop-color:#311944"/>
				<stop  offset="1" style="stop-color:#A03976"/>
			</linearGradient>
			<path style="fill:url(#SVGID_00000054260897183078171240000009049104515243130812_);" d="M777.696,3135.402
				c-5.289,14.744-10.377,26.867-14.357,35.808c-8.804,19.78-13.616,27.203-19.066,33.638c-4.753,5.604-16.004,17.564-19.029,15.573
				c-3.072-2.019,5.16-16.56,21.026-59.145c2.304-6.181,9.581-25.875,9.581-25.875l0,0H777.696z"/>
			
				<linearGradient id="SVGID_00000158022732911800001710000006686986261276942985_" gradientUnits="userSpaceOnUse" x1="2700.5088" y1="3162.3303" x2="2691.5957" y2="2817.7029" gradientTransform="matrix(-1 0 0 1 3763.5703 0)">
				<stop  offset="0" style="stop-color:#311944"/>
				<stop  offset="1" style="stop-color:#893976"/>
			</linearGradient>
			<path style="fill:url(#SVGID_00000158022732911800001710000006686986261276942985_);" d="M1156.737,2519.307
				c3.774,37.061,7.395,94.581,1.981,164.393c-7.057,90.956-25.244,148.511-48.052,245.49
				c-13.939,59.268-32.721,146.498-49.718,255.592c-3.944,2.257-15.546,8.193-30.484,5.977c-8.364-1.242-14.619-4.567-18.313-6.957
				c-44.595-136.268-31.424-220.714-9.903-273.325c9.173-22.427,20.295-40.119,26.241-74.593
				c7.866-45.608-1.86-71.105-15.731-176.752c-9.887-75.3-8.176-86.94-1.597-98.232
				C1037.455,2515.749,1117.882,2516.632,1156.737,2519.307z"/>
			
				<linearGradient id="SVGID_00000145770042976223875510000011152839577352989365_" gradientUnits="userSpaceOnUse" x1="2898.667" y1="3157.2058" x2="2889.7539" y2="2812.5784" gradientTransform="matrix(-1 0 0 1 3763.5703 0)">
				<stop  offset="0" style="stop-color:#311944"/>
				<stop  offset="1" style="stop-color:#893976"/>
			</linearGradient>
			<path style="fill:url(#SVGID_00000145770042976223875510000011152839577352989365_);" d="M1003.238,2535.154
				c-27.318,141.083-54.131,215.183-74.422,257.094c-5.004,10.335-21.699,43.682-37.482,91.49
				c-13.973,42.318-19.796,73.448-22.778,87.149c-9.418,43.246-32.697,106.39-95.331,189.21c-0.781,0.458-11.46,6.499-21.671,1.115
				c-5.167-2.727-7.744-7.073-8.767-9.098c8.188-79.183,17.588-145.72,25.747-197.073c1.713-10.77,9.252-57.893,21.075-120.149
				c4.627-24.365,11.407-60.063,19.529-96.729c10.112-45.661,25.618-107.778,49.516-182.213
				C906.848,2549.016,955.044,2542.088,1003.238,2535.154z"/>
			
				<linearGradient id="SVGID_00000004546645121476713500000012459537541098942345_" gradientUnits="userSpaceOnUse" x1="3020.3147" y1="2294.5449" x2="2895.5361" y2="2117.7754" gradientTransform="matrix(-1 0 0 1 3763.5703 0)">
				<stop  offset="0" style="stop-color:#444B8C"/>
				<stop  offset="0.9964" style="stop-color:#26264F"/>
			</linearGradient>
			<path style="fill:url(#SVGID_00000004546645121476713500000012459537541098942345_);" d="M1026.511,1977.113
				c15.493-14.321,45.133-30.83,60-69.208c4.475-11.552,20.329-52.484-3.058-83.795c-13.88-18.586-39.664-31.206-62.389-26.738
				c-19.42,3.818-22.457,17.343-55.456,44.564c-12.845,10.596-33.491,27.626-56.47,37.095c-39.368,16.225-63.02,0.958-102.544,2.699
				c-48.556,2.141-104.961,29.238-132.136,68.645c-48.234,69.938,21.638,140.886-31.194,222.819
				c-17.312,26.843-25.843,20.825-66.846,72.788c-41.057,52.032-61.586,78.044-57.933,109.924
				c5.07,44.244,52.725,86.51,97.602,89.382c43.838,2.809,71.705-31.682,94.023-16.594c15.885,10.735,6.802,31.618,23.674,56.714
				c21.747,32.355,64.493,38.802,71.396,39.841c64.077,9.666,150.474-65.471,187.169-154.489
				C1058.514,2210.238,942.281,2054.971,1026.511,1977.113z"/>
			
				<linearGradient id="SVGID_00000040561983689661928530000018197433542267553963_" gradientUnits="userSpaceOnUse" x1="1124.7104" y1="2241.7595" x2="452.7826" y2="2631.9114">
				<stop  offset="0" style="stop-color:#FFC444"/>
				<stop  offset="0.9964" style="stop-color:#F36F56"/>
			</linearGradient>
			<path style="fill:url(#SVGID_00000040561983689661928530000018197433542267553963_);" d="M1289.438,2021.676
				c0.435-44.807-101.349-80.615-147.921-92.151c-72.445-17.948-130.458-6.679-144.548-3.697
				c-90.348,19.144-146.618,73.357-167.796,96.144c17.342,11.292,65.199,45.747,88.9,111.114
				c7.375,20.338,29.16,89.865-1.996,154.988c-17.952,37.525-49.71,65.697-73.828,87.097c-36.177,32.093-54.911,37.026-67.04,65.777
				c-13.208,31.311,0.101,46.577-16.301,68.013c-17.615,23.019-38.254,12.318-68.111,35.599
				c-30.585,23.842-19.701,43.467-47.535,69.817c-40.444,38.284-94.058,25.851-96.555,43.078
				c-2.149,14.819,35.957,34.925,68.331,43.079c64.113,16.148,120.034-10.956,136.663-19.311
				c46.04-23.129,38.087-38.1,73.188-55.735c58.777-29.524,98.945,3.331,232.817,6.714c72.496,1.834,109.152,2.245,129.235-22.282
				c18.34-22.404,8.699-46.979-2.307-152.887c-5.239-50.407-7.128-101.11-10.989-151.639
				c-10.92-142.936-11.254-155.515-1.559-175.279C1206.816,2059.323,1289.047,2061.889,1289.438,2021.676z"/>
			<g style="opacity:0.3;">
				
					<linearGradient id="SVGID_00000077305664132510858880000007163364107795754371_" gradientUnits="userSpaceOnUse" x1="2885.6558" y1="1920.0986" x2="2988.6475" y2="2549.9353" gradientTransform="matrix(-1 0 0 1 3763.5703 0)">
					<stop  offset="0" style="stop-color:#FFC444"/>
					<stop  offset="0.9964" style="stop-color:#F36F56"/>
				</linearGradient>
				<path style="fill:url(#SVGID_00000077305664132510858880000007163364107795754371_);" d="M643.262,2614.376
					c27.834-26.35,16.95-45.975,47.535-69.817c29.858-23.28,50.496-12.58,68.111-35.599c16.402-21.436,3.093-36.702,16.301-68.013
					c12.128-28.751,30.863-33.684,67.04-65.777c24.118-21.4,55.876-49.572,73.828-87.097c31.156-65.123,9.372-134.65,1.996-154.988
					c-23.701-65.366-71.558-99.822-88.9-111.114c1.669-1.799,3.639-3.848,5.744-6.006c114.26,15.702,180.878,81.723,189.117,101.273
					c19.045,45.19-11.105,61.792-11.884,192.124c-0.371,62.296,6.348,86.894-13.864,112.895
					c-23.117,29.738-49.757,20.535-83.186,59.419c-25.685,29.871-21.571,48.811-45.555,61.397
					c-25.789,13.531-42.215-2.24-71.302,3.963c-48.594,10.362-58.982,66.393-91.108,97.048
					c-24.293,23.18-69.208,39.387-157.788,21.992c-2.049-2.983-3.038-5.895-2.642-8.623
					C549.203,2640.227,602.818,2652.661,643.262,2614.376z"/>
			</g>
			
				<linearGradient id="SVGID_00000166636546287163812150000010549475862780268935_" gradientUnits="userSpaceOnUse" x1="2864.3511" y1="1923.5831" x2="2967.3428" y2="2553.418" gradientTransform="matrix(-1 0 0 1 3763.5703 0)">
				<stop  offset="0" style="stop-color:#FFC444"/>
				<stop  offset="0.9964" style="stop-color:#F36F56"/>
			</linearGradient>
			<path style="fill:url(#SVGID_00000166636546287163812150000010549475862780268935_);" d="M989.375,2152.397
				c12.146,25.792-43.667,85.867-105.701,114.391c-12.638,5.815-103.404,47.547-143.857,7.417
				c-33.427-33.163-11.853-101.732-4.151-126.212c37.818-120.207,153.96-181.355,202.634-203.41
				c36.325,90.827,14.932,131.301,6.511,143.939c-8.797,13.2-33.346,40.931-59.419,65.36c-18.34,17.181-29.76,25.543-28.224,28.224
				c1.911,3.336,23.408-2.965,106.907-43.607C973.755,2140.067,985.225,2143.589,989.375,2152.397z"/>
			
				<linearGradient id="SVGID_00000077318612312774970850000000790716123380183449_" gradientUnits="userSpaceOnUse" x1="959.1405" y1="2135.7034" x2="1339.0873" y2="2135.7034">
				<stop  offset="0" style="stop-color:#FF9085"/>
				<stop  offset="1" style="stop-color:#FB6FBB"/>
			</linearGradient>
			<path style="fill:url(#SVGID_00000077318612312774970850000000790716123380183449_);" d="M1338.751,2004.212l-40.969,204.031
				c-1.313,6.539-6.38,11.674-12.901,13.072l-305.485,65.56c-10.947,2.349-21.071-6.501-20.204-17.664l16.123-207.506
				c0.56-7.201,5.661-13.224,12.675-14.955c48.458-11.96,234.977-56.75,333.35-62.57
				C1332.328,1983.531,1340.917,1993.421,1338.751,2004.212z"/>
			
				<linearGradient id="SVGID_00000003076194463473461930000008173752633192598403_" gradientUnits="userSpaceOnUse" x1="2029.5715" y1="1296.5446" x2="2008.7762" y2="1351.9989" gradientTransform="matrix(-0.8633 0.5047 0.5047 0.8633 2082.9607 -259.5109)">
				<stop  offset="0" style="stop-color:#311944"/>
				<stop  offset="1" style="stop-color:#A03976"/>
			</linearGradient>
			<path style="fill:url(#SVGID_00000003076194463473461930000008173752633192598403_);" d="M1034.054,1855.2
				c0,0-5.763,46.066-22.764,56.621c-17.003,10.549-44.489,24.337-47.517,28.079c-3.028,3.738,105.327,15.388,159.026-11.709l0,0
				c-17.696-3.691-22.508-5.048-22.508-5.048c-4.802-1.358-13.761-3.882-22.743-9.001c-6.113-3.481-15.966-10.281-25.003-23.123
				l0.197-25.507L1034.054,1855.2z"/>
			
				<linearGradient id="SVGID_00000139984125965042094340000006596236880997132944_" gradientUnits="userSpaceOnUse" x1="2022.4923" y1="1226.3501" x2="1952.1824" y2="1313.4948" gradientTransform="matrix(-0.8633 0.5047 0.5047 0.8633 2082.9607 -259.5109)">
				<stop  offset="0" style="stop-color:#311944"/>
				<stop  offset="1" style="stop-color:#A03976"/>
			</linearGradient>
			<path style="fill:url(#SVGID_00000139984125965042094340000006596236880997132944_);" d="M1031.468,1871.515
				c0,0,11.085,15.216,28.471,8.875c15.566-5.677,6.276-45.882-6.072-50.468c-4.118-1.529-11.682-0.853-16.737,2.3
				c-3.556,2.219-13.051,14.014-7.608,27.232c-3.932-1.14-7.394-0.104-8.26,1.843c-1.101,2.469,2.229,5.834,2.984,6.596
				C1026.861,1870.535,1030.015,1871.274,1031.468,1871.515z"/>
			
				<linearGradient id="SVGID_00000137817243474081058700000016807156669468930739_" gradientUnits="userSpaceOnUse" x1="991.2972" y1="2134.2339" x2="1339.0873" y2="2134.2339">
				<stop  offset="0" style="stop-color:#FF9085"/>
				<stop  offset="1" style="stop-color:#FB6FBB"/>
			</linearGradient>
			<path style="opacity:0.3;fill:url(#SVGID_00000137817243474081058700000016807156669468930739_);" d="M1063.648,2180.621
				c32.808-9.25,60.017,13.722,86.157-4.456c26.775-18.621,9.3-50.425,37.137-81.701c29.763-33.441,67.521-17.06,95.07-47.535
				c10.226-11.316,19.426-29.751,19.568-61.183c6.902-0.667,13.512-1.195,19.761-1.566c10.987-0.65,19.577,9.243,17.411,20.03
				l-40.97,204.032c-1.312,6.539-6.379,11.675-12.9,13.073l-293.584,63.004C1012.026,2211.594,1039.688,2187.375,1063.648,2180.621z
				"/>
			
				<linearGradient id="SVGID_00000090991691174685732810000017586776570144883901_" gradientUnits="userSpaceOnUse" x1="2419.9102" y1="2177.7969" x2="2458.5322" y2="1980.7257" gradientTransform="matrix(-1 0 0 1 3763.5703 0)">
				<stop  offset="0" style="stop-color:#311944"/>
				<stop  offset="1" style="stop-color:#A03976"/>
			</linearGradient>
			<path style="fill:url(#SVGID_00000090991691174685732810000017586776570144883901_);" d="M1319.308,2112.754
				c0,0,19.487-18.012,21.607-38.935c2.12-20.924-12.586-37.666-26.833-41.934c-14.246-4.267-21.85,2.026-12.286,22.629
				C1311.361,2075.117,1326.532,2088.49,1319.308,2112.754z"/>
		</g>
	</g>
</g>
</svg>
