<?xml version="1.0" encoding="UTF-8" standalone="no"?>
<!-- Created with Inkscape (http://www.inkscape.org/) -->

<svg
   width="118.39277mm"
   height="118.29201mm"
   viewBox="0 0 118.39277 118.29201"
   version="1.1"
   id="svg1"
   inkscape:export-filename="svgsaved.svg"
   inkscape:export-xdpi="96"
   inkscape:export-ydpi="96"
   xmlns:inkscape="http://www.inkscape.org/namespaces/inkscape"
   xmlns:sodipodi="http://sodipodi.sourceforge.net/DTD/sodipodi-0.dtd"
   xmlns="http://www.w3.org/2000/svg"
   xmlns:svg="http://www.w3.org/2000/svg">
  <sodipodi:namedview
     id="namedview1"
     pagecolor="#ffffff"
     bordercolor="#000000"
     borderopacity="0.25"
     inkscape:showpageshadow="2"
     inkscape:pageopacity="0.0"
     inkscape:pagecheckerboard="0"
     inkscape:deskcolor="#d1d1d1"
     inkscape:document-units="mm" />
  <defs
     id="defs1" />
  <g
     inkscape:label="Layer 1"
     inkscape:groupmode="layer"
     id="layer1"
     transform="translate(-37.48195,-68.804586)">
    <path
       id="path1"
       style="fill:#22c55e;fill-opacity:1;stroke:none;stroke-width:1.6069;stroke-opacity:1"
       d="m 96.678337,68.804586 a 59.196552,59.196548 0 0 0 -59.196387,59.196384 59.196552,59.196548 0 0 0 0.01499,0.20929 c 15.525014,4.7794 32.653724,12.52594 42.340568,24.91889 2.626209,3.35987 5.085038,7.34818 7.379395,11.74502 l 23.291597,-60.35135 -7.50445,-2.85306 26.18083,-23.130368 A 59.196552,59.196548 0 0 0 96.678337,68.804586 Z m 34.107483,10.835514 4.50721,34.30488 -7.82329,-2.97398 -29.37857,76.12559 a 59.196552,59.196548 0 0 0 57.78355,-59.09562 59.196552,59.196548 0 0 0 -25.0889,-48.36087 z m -90.546932,66.00062 a 59.196552,59.196548 0 0 0 37.233903,38.21627 c -3.421821,-7.27307 -7.334153,-14.00261 -11.865943,-19.4448 -6.546403,-8.18983 -15.69926,-14.26191 -25.36796,-18.77147 z" />
  </g>
</svg>
